<?xml version="1.0" encoding="utf-8"?>
<!-- Generator: Adobe Illustrator 21.1.0, SVG Export Plug-In . SVG Version: 6.00 Build 0)  -->
<svg version="1.1" id="Layer_1" xmlns="http://www.w3.org/2000/svg" xmlns:xlink="http://www.w3.org/1999/xlink" x="0px" y="0px"
	 viewBox="0 0 675.1 677" style="enable-background:new 0 0 675.1 677;" xml:space="preserve">
<style type="text/css">
	.st0{fill:#DDEEF2;}
	.st1{fill:#474747;}
	.st2{fill:#4EC8EA;}
	.st3{fill:#FFFFFE;}
	.st4{fill:#FFDA96;}
	.st5{opacity:0.6;}
	.st6{fill:#F2675D;}
	.st7{fill:#9ACAE6;}
	.st8{fill:#CCCCCC;}
	.st9{fill:#944232;}
	.st10{fill:#252735;}
	.st11{fill:#0E3B7C;}
	.st12{fill:#ED9311;}
	.st13{fill:#61DAFB;}
	.st14{fill:#EBC580;}
	.st15{fill:#232221;}
	.st16{fill:#0C0C0B;}
	.st17{fill:#3F3D3C;}
	.st18{fill:#FFFFFF;}
	.st19{fill:#2B2B2B;}
	.st20{fill:#F0F0F2;}
	.st21{font-family:'Montserrat-Bold';}
	.st22{font-size:25.0231px;}
	.st23{fill:#8B8C8C;}
	.st24{fill:#C5C6C7;}
	.st25{fill:#404041;}
	.st26{fill:#434444;}
</style>
<title>SkillIllustration</title>
<g>
	<g id="Layer_2">
		<g id="objects">
			<g>
				
					<image style="overflow:visible;opacity:0.3;" width="411" height="316" xlink:href="38B3AEDBD2886C69.png"  transform="matrix(1 0 0 1 -73 -65)">
				</image>
				<g>
					<path class="st0" d="M45.5,79.9H48c-0.1-0.4-0.1-0.9-0.1-1.4c-0.1-21.5,17.1-39,38.7-39.2c3.9,0,7.7,0.5,11.5,1.7
						c8.4-24.2,31.3-40.3,56.9-40.3c31.9,0,57.4,24.9,59.6,56.3c30.3,0.1,54.3,24.8,54.3,55.3v1.5c0,30.5-23.6,57.6-54.1,57.6h-66.3
						c-0.2,0-0.5,0-0.7,0c-0.2,0-0.5,0-0.7,0H45.5c-24,0.1-42.5-21.6-42.5-45.7v-1.5C2.9,100.2,21.5,80,45.5,79.9"/>
				</g>
			</g>
			<rect x="130.1" y="60" class="st1" width="418.9" height="583.7"/>
			<rect x="128.6" y="56.9" class="st2" width="418.9" height="33.8"/>
			<path class="st3" d="M396.5,328.9L396.5,328.9L396.5,328.9z"/>
			<path class="st4" d="M286.8,323.7c0,7.7-6.3,13.9-13.9,13.9c-7.6,0-13.9-6.3-13.9-13.9c0-7.7,6.3-13.9,13.9-13.9l0,0
				C280.6,309.8,286.8,316.1,286.8,323.7"/>
			<path class="st4" d="M432.9,323.7c0,7.7-6.3,13.9-13.9,13.9c-7.7,0-13.9-6.3-13.9-13.9c0-7.7,6.2-13.9,13.9-13.9
				C426.7,309.8,432.8,316.1,432.9,323.7"/>
			<g class="st5">
				<rect x="160.6" y="114.6" class="st6" width="201.1" height="7.6"/>
				<rect x="160.6" y="133.5" class="st7" width="64.4" height="7.6"/>
				<rect x="160.6" y="152.4" class="st8" width="104" height="7.6"/>
				<rect x="209" y="171.2" class="st7" width="60.7" height="7.6"/>
				<rect x="209" y="190" class="st7" width="60.7" height="7.6"/>
				<rect x="251.1" y="209" class="st7" width="59" height="7.6"/>
				<rect x="246.8" y="133.5" class="st8" width="109.9" height="7.6"/>
				<rect x="372.4" y="133.5" class="st8" width="52.4" height="7.6"/>
				<rect x="444.7" y="133.5" class="st8" width="70.9" height="7.6"/>
				<rect x="282" y="152.4" class="st7" width="61.8" height="7.6"/>
				<rect x="288.1" y="171.2" class="st8" width="35.4" height="7.6"/>
				<rect x="288.1" y="190" class="st8" width="60.7" height="7.6"/>
				<rect x="340.5" y="171.2" class="st8" width="67.4" height="7.6"/>
				<rect x="421.3" y="171.2" class="st8" width="35.3" height="7.6"/>
				<rect x="471.8" y="171.2" class="st8" width="43.8" height="7.6"/>
				<rect x="362.2" y="190" class="st8" width="76.6" height="7.6"/>
				<rect x="450.3" y="190" class="st8" width="22.8" height="7.6"/>
				<rect x="326.9" y="209" class="st8" width="43.9" height="7.6"/>
				<rect x="209" y="246.6" class="st7" width="60.7" height="7.6"/>
				<rect x="209" y="265.6" class="st7" width="60.7" height="7.6"/>
				<rect x="288.1" y="246.6" class="st8" width="35.4" height="7.6"/>
				<rect x="288.1" y="265.6" class="st8" width="54.6" height="7.6"/>
				<rect x="340.5" y="246.6" class="st8" width="51.8" height="7.6"/>
				<rect x="402.6" y="246.6" class="st8" width="27.2" height="7.6"/>
				<rect x="441.5" y="246.6" class="st8" width="33.7" height="7.6"/>
				<rect x="395.9" y="265.6" class="st8" width="60.7" height="7.6"/>
				<rect x="209" y="284.4" class="st7" width="60.7" height="7.6"/>
				<rect x="209" y="303.2" class="st7" width="60.7" height="7.6"/>
				<rect x="288.1" y="284.4" class="st8" width="35.4" height="7.6"/>
				<rect x="288.1" y="303.2" class="st8" width="111.1" height="7.6"/>
				<rect x="340.5" y="284.4" class="st8" width="67.4" height="7.6"/>
				<rect x="421.3" y="284.4" class="st8" width="35.3" height="7.6"/>
				<rect x="471.8" y="284.4" class="st8" width="43.8" height="7.6"/>
				<rect x="412.8" y="303.2" class="st8" width="62.3" height="7.6"/>
				<rect x="354.9" y="265.6" class="st8" width="25.9" height="7.6"/>
				<rect x="160.6" y="341" class="st7" width="64.4" height="7.6"/>
				<rect x="160.6" y="359.9" class="st8" width="104" height="7.6"/>
				<rect x="209" y="378.7" class="st7" width="60.7" height="7.6"/>
				<rect x="209" y="397.6" class="st7" width="60.7" height="7.7"/>
				<rect x="251.1" y="416.5" class="st7" width="59" height="7.6"/>
				<rect x="246.8" y="341" class="st8" width="61" height="7.6"/>
				<rect x="323.4" y="341" class="st8" width="30.8" height="7.6"/>
				<rect x="374.1" y="341" class="st8" width="97.9" height="7.6"/>
				<rect x="282" y="359.9" class="st7" width="61.8" height="7.6"/>
				<rect x="288.1" y="378.7" class="st8" width="69.1" height="7.6"/>
				<rect x="288.1" y="397.6" class="st8" width="47.1" height="7.7"/>
				<rect x="374.1" y="378.7" class="st8" width="51.3" height="7.6"/>
				<rect x="348.8" y="397.6" class="st8" width="90.1" height="7.7"/>
				<rect x="450.3" y="397.6" class="st8" width="22.8" height="7.7"/>
				<rect x="326.9" y="416.5" class="st8" width="43.9" height="7.6"/>
				<rect x="380.5" y="416.5" class="st8" width="81.6" height="7.6"/>
				<rect x="474.2" y="416.5" class="st8" width="24.4" height="7.6"/>
				<rect x="209" y="454.2" class="st7" width="60.7" height="7.6"/>
				<rect x="209" y="473.1" class="st7" width="60.7" height="7.6"/>
				<rect x="288.1" y="454.2" class="st8" width="99.9" height="7.6"/>
				<rect x="288.1" y="473.1" class="st8" width="54.6" height="7.6"/>
				<rect x="402.6" y="454.2" class="st8" width="27.2" height="7.6"/>
				<rect x="441.5" y="454.2" class="st8" width="33.7" height="7.6"/>
				<rect x="395.9" y="473.1" class="st8" width="60.7" height="7.6"/>
				<rect x="354.9" y="473.1" class="st8" width="25.9" height="7.6"/>
				<rect x="160.6" y="504.1" class="st7" width="64.4" height="7.6"/>
				<rect x="160.6" y="522.8" class="st8" width="104" height="7.6"/>
				<rect x="209" y="541.8" class="st7" width="60.7" height="7.6"/>
				<rect x="209" y="560.6" class="st7" width="60.7" height="7.6"/>
				<rect x="251.1" y="579.4" class="st7" width="59" height="7.6"/>
				<rect x="246.8" y="504.1" class="st8" width="61" height="7.6"/>
				<rect x="323.4" y="504.1" class="st8" width="30.8" height="7.6"/>
				<rect x="374.1" y="504.1" class="st8" width="141.5" height="7.6"/>
				<rect x="282" y="522.8" class="st7" width="61.8" height="7.6"/>
				<rect x="288.1" y="541.8" class="st8" width="69.1" height="7.6"/>
				<rect x="288.1" y="560.6" class="st8" width="47.1" height="7.6"/>
				<rect x="374.1" y="541.8" class="st8" width="51.3" height="7.6"/>
				<rect x="438.9" y="541.8" class="st8" width="31.3" height="7.6"/>
				<rect x="485.4" y="541.8" class="st8" width="30.2" height="7.6"/>
				<rect x="348.8" y="560.6" class="st8" width="90.1" height="7.6"/>
				<rect x="450.3" y="560.6" class="st8" width="22.8" height="7.6"/>
				<rect x="326.9" y="579.4" class="st8" width="43.9" height="7.6"/>
				<rect x="209" y="617.2" class="st7" width="60.7" height="7.6"/>
				<rect x="209" y="636.1" class="st7" width="60.7" height="7.6"/>
				<rect x="288.1" y="617.2" class="st8" width="99.9" height="7.6"/>
				<rect x="288.1" y="636.1" class="st8" width="54.6" height="7.6"/>
				<rect x="402.6" y="617.2" class="st8" width="27.2" height="7.6"/>
				<rect x="441.5" y="617.2" class="st8" width="33.7" height="7.6"/>
				<rect x="395.9" y="636.1" class="st8" width="60.7" height="7.6"/>
				<rect x="354.9" y="636.1" class="st8" width="25.9" height="7.6"/>
			</g>
			<path class="st9" d="M397.9,465.1c3.5-0.2,7-1.5,10.4-2.4c3.9-1,7.8-1,11.7-2c0.1,0,0.1-0.1,0.1-0.2s-0.1-0.1-0.2-0.1
				c-3.8,0.8-7.5,0.8-11.3,1.8C404.9,463.1,401.4,464.1,397.9,465.1L397.9,465.1L397.9,465.1z"/>
			<path class="st9" d="M399.9,464.9c-0.2,0.6-0.1,1.1,0.1,1.8c0,0.1,0.1,0.1,0.2,0l0,0c0.1-0.6,0-1.1-0.2-1.7
				C400,464.9,400,464.9,399.9,464.9L399.9,464.9L399.9,464.9z"/>
			<path class="st9" d="M401.1,464.4c-0.2,0.6-0.1,1.4,0.3,2c0,0.1,0.1,0.1,0.2,0l0,0c0.1-0.2,0.1-0.5,0-0.8
				c-0.1-0.4-0.1-0.7-0.2-1.1C401.3,464.4,401.2,464.3,401.1,464.4L401.1,464.4L401.1,464.4z"/>
			<path class="st9" d="M402.8,464c0.1,0.6,0.2,1.3,0.5,1.9c0,0,0,0,0.1,0l0,0C403.2,465.2,403.1,464.6,402.8,464L402.8,464z"/>
			<path class="st9" d="M404.2,463.8c0,0.7,0.2,1.4,0.6,2c0.1,0.1,0.2,0,0.2,0l0,0c0-0.7-0.1-1.4-0.5-2c0-0.1-0.2-0.1-0.3-0.1
				C404.3,463.6,404.2,463.7,404.2,463.8z"/>
			<path class="st9" d="M405.6,463.3c0,0.4,0,0.8,0.2,1.3c0.1,0.4,0.3,0.7,0.6,1c0.1,0,0.1,0,0.2,0c0,0,0,0,0-0.1
				c0-0.4-0.1-0.8-0.2-1.3c-0.1-0.4-0.2-0.7-0.4-1c-0.1-0.1-0.2-0.1-0.2,0C405.6,463.2,405.6,463.2,405.6,463.3L405.6,463.3z"/>
			<path class="st9" d="M406.9,463c0,0.4,0.1,0.8,0.3,1.1c0.1,0.3,0.1,0.7,0.4,0.9c0.1,0.1,0.2,0.1,0.2,0c0,0,0,0,0-0.1
				c0.1-0.4,0-0.7-0.2-1.1c-0.1-0.4-0.3-0.7-0.5-1C407,462.8,407,462.8,406.9,463C406.9,462.9,406.9,462.9,406.9,463L406.9,463z"/>
			<path class="st9" d="M408.6,462.7c-0.1,0.4-0.1,0.8,0,1.1c0,0.4,0.2,0.9,0.5,1.3c0,0.1,0.1,0.1,0.2,0c0,0,0,0,0-0.1
				c0.1-0.4,0-0.8-0.2-1.1c-0.1-0.4-0.2-0.8-0.4-1.3C408.7,462.6,408.7,462.6,408.6,462.7C408.6,462.6,408.6,462.6,408.6,462.7
				L408.6,462.7z"/>
			<path class="st9" d="M410,462.2c0,0.5,0.1,0.9,0.3,1.5c0.1,0.4,0.2,0.8,0.5,1.3c0,0.1,0.1,0.1,0.2,0c0,0,0,0,0-0.1
				c0-0.4-0.1-0.8-0.3-1.3c-0.1-0.4-0.3-0.9-0.5-1.4C410.2,462,410,462.1,410,462.2L410,462.2z"/>
			<path class="st9" d="M411.4,462.1c0.2,0.7,0.4,1.4,0.7,2h0.1l0,0c-0.1-0.7-0.3-1.5-0.6-2.1C411.5,462,411.3,462.1,411.4,462.1
				L411.4,462.1z"/>
			<path class="st9" d="M412.6,461.9c0,0.4,0,0.8,0.2,1.1c0.1,0.4,0.3,0.7,0.5,1.1c0,0,0.1,0.1,0.1,0l0,0c0.1-0.8-0.1-1.7-0.7-2.3
				C412.8,461.9,412.7,461.9,412.6,461.9L412.6,461.9z"/>
			<path class="st9" d="M414.2,461.8c0.2,0.7,0.5,1.5,0.9,2.1c0,0.1,0.1,0,0.1,0c-0.2-0.7-0.5-1.5-0.9-2.1
				C414.3,461.7,414.2,461.7,414.2,461.8C414.2,461.7,414.1,461.8,414.2,461.8L414.2,461.8z"/>
			<path class="st9" d="M415.3,461.6c0.1,0.4,0.2,0.8,0.3,1.3c0.1,0.3,0.2,0.6,0.4,0.9c0,0,0.1,0.1,0.2,0l0,0
				c0.3-0.7-0.3-1.7-0.7-2.3C415.5,461.5,415.4,461.5,415.3,461.6C415.3,461.5,415.3,461.5,415.3,461.6L415.3,461.6z"/>
			<path class="st9" d="M416.6,461.4c0,0.7,0.2,1.5,0.7,2c0.1,0,0.1,0,0.2,0v-0.1c0-0.3-0.1-0.7-0.3-1c-0.1-0.3-0.3-0.6-0.4-0.9
				c0-0.1-0.1-0.1-0.2,0C416.7,461.3,416.6,461.3,416.6,461.4L416.6,461.4z"/>
			<path class="st9" d="M417.7,461.1c0.1,0.4,0.2,0.8,0.3,1.3c0.1,0.4,0,0.7,0.3,1c0.2-0.3,0-0.7-0.1-1
				C418.1,461.8,417.9,461.4,417.7,461.1C417.7,461,417.6,461,417.7,461.1L417.7,461.1z"/>
			<path class="st9" d="M419.2,461c-0.2,0.8-0.1,1.7,0.3,2.4c0,0.1,0.1,0.1,0.2,0.1c0,0,0,0,0.1-0.1c0.1-0.4,0.1-0.8,0-1.1
				c-0.1-0.4-0.2-0.8-0.3-1.3C419.5,460.9,419.3,461,419.2,461L419.2,461z"/>
			<path class="st9" d="M272.5,460.8c-0.2,0.3-0.3,0.7-0.4,1c-0.2,0.3-0.3,0.7-0.3,1.1c0,0.1,0,0.1,0.1,0.1h0.1
				c0.2-0.3,0.4-0.7,0.5-1.1c0.1-0.4,0.2-0.7,0.1-1.1C272.6,460.7,272.6,460.7,272.5,460.8C272.6,460.8,272.6,460.8,272.5,460.8
				L272.5,460.8z"/>
			<path class="st9" d="M274.1,461.3c-0.1,0.4-0.2,0.8-0.2,1.3c-0.1,0.3-0.2,0.6,0,0.9c0.1,0.1,0.2,0.1,0.2,0.1l0,0
				c0.3-0.2,0.3-0.6,0.3-1c0.1-0.4,0.1-0.8,0-1.3c0-0.1-0.1-0.1-0.2-0.1C274.2,461.2,274.1,461.2,274.1,461.3L274.1,461.3z"/>
			<path class="st9" d="M276,461.5c-0.1,0.4-0.1,0.8-0.1,1.1c-0.1,0.4-0.3,0.8-0.2,1.3c0,0.1,0.2,0.2,0.3,0.2c0,0,0,0,0.1,0
				c0.4-0.3,0.4-1,0.5-1.5c0.1-0.4,0.1-1-0.3-1.1C276.1,461.4,276,461.5,276,461.5L276,461.5z"/>
			<path class="st9" d="M277.7,461.9c0,0.4,0,0.8,0,1.3c0,0.4-0.2,0.8,0,1.1c0.1,0,0.1,0,0.2,0c0.4-0.2,0.3-0.9,0.3-1.4
				c0-0.4,0-0.9-0.4-1C277.8,461.9,277.8,461.9,277.7,461.9C277.7,461.9,277.7,462,277.7,461.9L277.7,461.9z"/>
			<path class="st9" d="M280.3,462.6c-0.2,0.3-0.3,0.6-0.3,0.9s-0.2,0.7,0,0.9c0.1,0.1,0.2,0.1,0.2,0.1c0.3-0.2,0.3-0.4,0.3-0.7
				c0.1-0.4,0.1-0.7,0-1.1C280.5,462.6,280.4,462.5,280.3,462.6C280.3,462.5,280.3,462.6,280.3,462.6L280.3,462.6z"/>
			<path class="st9" d="M282,462.6c-0.1,0.4-0.1,0.8-0.2,1.3c-0.1,0.4-0.2,0.7-0.2,1.1c0,0.1,0.1,0.2,0.2,0.2c0.1,0,0.2-0.1,0.2-0.2
				c0.3-0.7,0.4-1.6,0.4-2.4C282.3,462.5,282,462.3,282,462.6L282,462.6z"/>
			<path class="st9" d="M284.4,462.6c-0.3,0.9-0.5,1.9-0.6,2.8c0,0.3,0.5,0.4,0.6,0.1c0.2-0.9,0.3-1.9,0.2-2.8
				C284.6,462.6,284.5,462.5,284.4,462.6L284.4,462.6L284.4,462.6z"/>
			<path class="st9" d="M286.4,463.2c-0.1,0.4-0.2,0.8-0.2,1.3c-0.1,0.4-0.1,0.8,0,1.3c0,0.1,0.1,0.1,0.2,0c0.2-0.3,0.3-0.7,0.2-1.1
				c0-0.5,0-0.9-0.1-1.5C286.6,463.1,286.6,463.1,286.4,463.2C286.4,463.1,286.4,463.1,286.4,463.2L286.4,463.2z"/>
			<path class="st9" d="M288.3,463.6c-0.1,0.5-0.2,1-0.3,1.6c-0.1,0.4-0.2,0.8-0.1,1.3c0,0.1,0.1,0.1,0.2,0.1c0,0,0,0,0.1,0
				c0.5-0.8,0.7-1.9,0.4-2.9C288.5,463.6,288.5,463.6,288.3,463.6C288.4,463.6,288.3,463.6,288.3,463.6L288.3,463.6z"/>
			<path class="st9" d="M289.9,464c-0.1,0.4-0.1,0.8-0.1,1.3c-0.1,0.4-0.1,0.8-0.1,1.3c0,0.1,0.1,0.1,0.2,0.1l0,0
				c0.3-0.3,0.4-0.7,0.4-1.1c0-0.5,0-0.9-0.1-1.5c0-0.1-0.1-0.1-0.2-0.1C290,463.9,289.9,464,289.9,464L289.9,464z"/>
			<path class="st9" d="M291.9,464.5c-0.1,0.4-0.2,0.8-0.3,1.3c-0.1,0.3-0.1,0.7-0.1,1c0,0.1,0.1,0.1,0.2,0.1l0,0
				c0.6-0.4,0.5-1.7,0.5-2.3c0-0.1-0.1-0.2-0.2-0.2C291.9,464.4,291.9,464.5,291.9,464.5L291.9,464.5z"/>
			<path class="st9" d="M270.6,460.6c3.5,0.8,7.3,1.5,10.9,2.1c3.8,0.6,7.5,0.8,11.2,2.1c0.3,0.1,0.4-0.3,0.1-0.4
				c-3.9-1.5-8-1.7-12-2.4C277.6,461.3,273.9,459.8,270.6,460.6L270.6,460.6z"/>
			<path class="st10" d="M387.5,401.5c-13.7-3.1-27.5-4.8-41.5-4.9c-14.1,0.2-28,1.8-41.7,4.9c-6.4,1.5-11.4,8.1-11.4,14.6V522
				h105.9V416.1C398.8,409.6,393.8,402.8,387.5,401.5"/>
			<path class="st4" d="M394.9,480.6c-9.3-5.7-40.8-5.2-50.9-1c-0.2,0-0.4-0.1-0.6-0.1c-13.9,0.5-31.2,0.4-44.1,7.3
				c2.1-6.2,2.5-21.6,1-22.2c-5.5-2-11.6-2.1-17.2-3.6c-4-1.1-9.1-2-12.1,1.7c-0.9,1.4-1.5,3-1.6,4.7c-0.5,3.8-1.3,7.4-1.9,11.2
				c-1.3,7.4-2,14.9-2.4,22.4c0,0.1,0,0.3,0,0.4c0,0.2,0,0.4,0,0.6c2.3,18.1,41.4,6.3,41.7,6.2c21-6.9,41.8-14.3,63.8-17.3
				c0.1,0,0.2,0.1,0.3,0.1c2.9,0.5,25,1,26.6-2.4C399.1,485.4,397.7,482.3,394.9,480.6z"/>
			<path class="st4" d="M344.5,479.6c-2-0.7-14.5-2.3-16.5-2.7c-0.2-0.4-19.2-0.9-26.8,2.2c-1,0.4-1.7,1.6-1.4,2.7l-3.3,5.9
				l34.2-5.6l-0.2-0.2c0.8,0.2,12.1,1.6,12.8,1.9C346,484.5,347,480.5,344.5,479.6z"/>
			<path class="st11" d="M400.6,408.8c-2.1-2.5-4.8-4.4-7.8-5.6c-2.8-1.1-6-1.6-9.1-0.9c-1.3,0.2-2.5,0.7-3.5,1.5
				c-0.9,0.6-1.8,1.4-2.4,2.3c-1.1,1.7-1.8,3.8-1.8,5.8c0,4.2,3.2,19.3,4.1,20.7c2.2,4.2,4,8.7,5.3,13.1c1.7,5.3,3,11.1,3.9,15.4
				c0.8,4.4,1.4,7.3,1.4,7.3l29.9-5.2c0,0-0.5-3.2-1.6-8.2s-2.5-11.5-4.6-18.2c-2-6.6-4.6-12.8-7.8-18.9c-1.3-2.3-2.6-4.4-4.2-6.5
				c-0.5-0.8-1.1-1.5-1.5-1.9L400.6,408.8"/>
			<path class="st11" d="M314.8,411.7c0-2.1-0.6-4.1-1.8-5.8c-0.6-0.9-1.5-1.7-2.4-2.3c-1-0.7-2.3-1.1-3.5-1.5
				c-3-0.5-6.2-0.2-9.1,0.9c-3,1.3-5.7,3.1-7.8,5.6l-0.5,0.6c-0.3,0.4-0.9,1-1.5,1.9c-1.6,2.1-2.9,4.3-4.2,6.5
				c-3.2,6-5.8,12.4-7.7,19c-2.1,6.7-3.5,13.3-4.6,18.2s-1.6,8.2-1.6,8.2l32,5.2c0,0,0.1-2.6,0.3-7.3c0.3-5.2,1.3-10.4,2.8-15.3
				C307,440.4,314.8,415.8,314.8,411.7z"/>
			<path class="st11" d="M319.2,398.5c-3.4,6,1.9,12.9,6.6,16.5c5.8,4.4,12.7,7.1,19.9,7.7c7,0.5,13.3-2.2,18.7-6.6
				c4.7-3.9,10.5-10.5,8.9-17.2c-0.2-0.6-1.1-0.4-1,0.3c1,7-4.7,13.1-9.9,17.1c-4.6,3.6-10.4,5.5-16.3,5.3
				c-6.4-0.5-12.4-2.7-17.7-6.2c-2.8-1.7-5.2-4-7-6.7c-2.1-3.2-2.3-6.4-1.7-10C319.6,398.4,319.3,398.2,319.2,398.5L319.2,398.5z"/>
			<path class="st11" d="M319.1,401.1c1,0.2,2.2-0.1,3.1-0.6c0.1-0.1,0.1-0.2,0-0.2l-0.1-0.1c-0.5,0-0.9,0.1-1.4,0.3
				c-0.5,0.2-1,0.3-1.7,0.3C318.9,400.8,318.9,401.1,319.1,401.1L319.1,401.1z"/>
			<path class="st11" d="M319.3,404c0.6,0,1.1,0,1.8-0.2c0.6-0.1,1.1-0.3,1.7-0.6c0.1,0,0.1-0.1,0.1-0.2l-0.1-0.1
				c-0.5,0-1.1,0.1-1.7,0.3c-0.6,0.2-1.1,0.4-1.8,0.6c0,0-0.1,0-0.1,0.1C319.1,403.9,319.2,404,319.3,404L319.3,404z"/>
			<path class="st11" d="M319.7,406.3c0.6,0.1,1.1-0.1,1.7-0.3c0.6-0.2,1.3-0.6,1.8-1c0.1-0.1,0-0.3-0.1-0.3c-0.5,0.1-1,0.3-1.6,0.6
				c-0.5,0.3-1.3,0.5-1.8,0.8c-0.1,0-0.1,0.1-0.1,0.2C319.6,406.3,319.6,406.3,319.7,406.3L319.7,406.3z"/>
			<path class="st11" d="M321.5,408.5c0.5-0.2,1-0.4,1.6-0.7c0.5-0.2,0.9-0.6,1.3-1c0.1-0.1,0-0.2-0.1-0.3h-0.1
				c-0.5,0.2-1,0.4-1.6,0.7c-0.5,0.3-0.9,0.6-1.4,0.9c-0.1,0.1-0.1,0.3,0,0.4C321.4,408.5,321.5,408.7,321.5,408.5L321.5,408.5z"/>
			<path class="st11" d="M322.8,411.3c0.7-0.5,1.4-0.9,2.1-1.5c0.6-0.4,1.3-0.8,1.7-1.4c0.1-0.1-0.1-0.3-0.2-0.2
				c-0.7,0.3-1.3,0.7-1.9,1.1c-0.6,0.5-1.3,1.1-1.9,1.8C322.6,411.2,322.7,411.3,322.8,411.3L322.8,411.3z"/>
			<path class="st11" d="M324.8,413.2c0.7-0.4,1.4-0.9,2.1-1.5c0.6-0.4,1.1-0.8,1.5-1.5c0-0.1,0-0.1,0-0.2h-0.1
				c-0.6,0.4-1.3,0.8-1.8,1.3c-0.6,0.5-1.3,1-1.8,1.6C324.5,413.1,324.6,413.3,324.8,413.2L324.8,413.2z"/>
			<path class="st11" d="M326.9,414.7c0.6-0.3,1.1-0.7,1.7-1.3c0.5-0.5,1-1,1.3-1.7c0-0.1,0-0.2-0.2-0.2h-0.1c-0.5,0.5-1,1-1.5,1.6
				C327.5,413.6,327.2,414.1,326.9,414.7L326.9,414.7L326.9,414.7L326.9,414.7z"/>
			<circle class="st12" cx="346.4" cy="449.1" r="3.6"/>
			<path class="st13" d="M346.4,462.5c2.9,2.8,5.7,4.4,7.9,4.4c0.7,0,1.5-0.1,2.1-0.5c2.1-1.1,2.8-4.2,2.1-8.3
				c-0.1-0.7-0.3-1.5-0.5-2.3c0.8-0.2,1.5-0.5,2.2-0.7c4-1.6,6.2-3.6,6.2-5.9c0-2.3-2.2-4.5-6.2-5.9c-0.7-0.3-1.5-0.5-2.2-0.7
				c0.2-0.8,0.3-1.6,0.5-2.3c0.6-4.3-0.1-7.3-2.1-8.4c-0.6-0.3-1.4-0.5-2.1-0.5c-2.2,0-5.1,1.7-7.9,4.4c-2.8-2.8-5.6-4.4-7.9-4.4
				c-0.7,0-1.5,0.1-2.1,0.5c-2.1,1.1-2.8,4.2-2.1,8.3c0.1,0.7,0.3,1.5,0.5,2.3c-0.8,0.2-1.5,0.5-2.2,0.7c-4,1.6-6.2,3.6-6.2,5.9
				s2.2,4.5,6.2,5.9c0.7,0.3,1.5,0.5,2.2,0.7c-0.2,0.8-0.3,1.6-0.5,2.3c-0.6,4.2,0.1,7.2,2.1,8.3c0.6,0.3,1.4,0.5,2.1,0.5
				C340.7,466.9,343.5,465.3,346.4,462.5L346.4,462.5z M344.1,457.2c0.7,0,1.5,0,2.2,0s1.5,0,2.2,0c-0.7,0.9-1.5,1.8-2.2,2.6
				C345.6,459,344.8,458.2,344.1,457.2L344.1,457.2z M339.3,453.2c0.4,0.6,0.7,1.3,1.1,1.9c-1.3-0.1-2.4-0.3-3.4-0.6
				c0.3-1,0.7-2.2,1.3-3.2C338.6,451.8,338.9,452.5,339.3,453.2L339.3,453.2z M337,443.7c1-0.2,2.2-0.4,3.4-0.6
				c-0.4,0.6-0.8,1.3-1.1,1.9c-0.3,0.6-0.7,1.3-1,2C337.7,446,337.3,444.8,337,443.7L337,443.7z M339.2,449.1c0.5-1,1-2.1,1.7-3.1
				c0.6-1,1.3-2.1,1.9-3c1.1-0.1,2.4-0.1,3.5-0.1s2.4,0,3.5,0.1c0.7,1,1.4,2.1,1.9,3c0.5,0.9,1.1,2.1,1.7,3.1c-0.5,1-1,2.1-1.7,3.1
				s-1.3,2.1-1.9,3c-1.1,0.1-2.4,0.1-3.5,0.1s-2.4,0-3.5-0.1c-0.7-1-1.4-2.1-1.9-3C340.4,451.3,339.7,450.2,339.2,449.1L339.2,449.1
				z M354.5,447l-1-2c-0.4-0.6-0.7-1.3-1.1-1.9c1.3,0.1,2.4,0.3,3.4,0.6C355.4,444.7,354.9,445.9,354.5,447L354.5,447z M354.5,451.2
				c0.5,1,0.8,2.2,1.3,3.2c-1,0.2-2.2,0.4-3.4,0.6c0.4-0.6,0.8-1.3,1.1-1.9C353.8,452.5,354.1,451.8,354.5,451.2L354.5,451.2z
				 M355.4,464.9c-0.3,0.2-0.7,0.3-1.1,0.3c-1.9,0-4.3-1.6-6.7-4c1.3-1.3,2.3-2.7,3.3-4.2c1.8-0.1,3.5-0.4,5.2-0.8
				c0.2,0.7,0.3,1.4,0.4,2.1C357.1,461.7,356.7,464,355.4,464.9z M357.5,444.2c4.4,1.3,7,3.1,7,4.9c0,1.6-1.8,3-5,4.3
				c-0.6,0.2-1.4,0.5-2.1,0.6c-0.5-1.7-1.1-3.3-1.9-4.9C356.3,447.5,356.9,445.9,357.5,444.2L357.5,444.2z M354.3,433.2
				c0.4,0,0.8,0.1,1.1,0.3c1.3,0.7,1.8,3.1,1.3,6.5c-0.1,0.6-0.3,1.4-0.4,2.1c-1.8-0.3-3.4-0.6-5.2-0.8c-1-1.5-2.1-2.8-3.3-4.2
				C349.9,434.7,352.3,433.1,354.3,433.2L354.3,433.2z M348.6,441c-0.7,0-1.5,0-2.2,0c-0.7,0-1.5,0-2.2,0c0.7-0.9,1.5-1.8,2.2-2.6
				C347.1,439.2,347.9,440,348.6,441L348.6,441z M337.3,433.4c0.3-0.2,0.7-0.3,1.1-0.3c1.9,0,4.3,1.6,6.7,4
				c-1.3,1.3-2.3,2.7-3.3,4.2c-1.8,0.1-3.5,0.4-5.2,0.8c-0.2-0.7-0.3-1.4-0.4-2.1C335.6,436.5,336,434.1,337.3,433.4L337.3,433.4z
				 M335.2,454.1c-4.4-1.3-7-3.1-7-4.9c0-1.6,1.8-3,5-4.3c0.6-0.2,1.4-0.5,2.1-0.6c0.5,1.7,1.1,3.3,1.9,4.9
				C336.4,450.7,335.8,452.3,335.2,454.1L335.2,454.1z M336.1,458.4c0.1-0.6,0.3-1.4,0.4-2.1c1.8,0.3,3.4,0.6,5.2,0.8
				c1,1.5,2.1,2.8,3.3,4.2c-2.4,2.3-4.7,4-6.7,4c-0.4,0-0.8-0.1-1.1-0.3C336,464,335.6,461.7,336.1,458.4L336.1,458.4z"/>
			<path class="st11" d="M329.6,416.5c0.5-0.5,0.9-1,1.4-1.7c0.5-0.6,0.9-1.3,1.1-2c0-0.1,0-0.2-0.1-0.2c-0.1,0-0.1,0-0.2,0.1
				c-0.5,0.6-1,1.1-1.5,1.9c-0.5,0.5-0.8,1.3-1,1.9c0,0.1,0,0.1,0,0.1C329.5,416.5,329.6,416.5,329.6,416.5L329.6,416.5z"/>
			<path class="st11" d="M332.6,417.7c0.4-0.6,0.7-1.4,1-2c0.3-0.5,0.5-1.1,0.6-1.7c0-0.1-0.2-0.2-0.3-0.1c-0.4,0.5-0.8,1.1-1,1.9
				c-0.3,0.6-0.5,1.3-0.5,1.9C332.4,417.7,332.5,417.8,332.6,417.7C332.6,417.8,332.6,417.8,332.6,417.7L332.6,417.7z"/>
			<path class="st11" d="M335.6,419.2c0.4-0.4,0.7-0.9,0.8-1.6c0.3-0.7,0.5-1.5,0.6-2.2c0-0.2-0.3-0.2-0.3-0.1
				c-0.3,0.6-0.5,1.3-0.7,1.9c-0.3,0.6-0.4,1.3-0.5,1.9C335.3,419.2,335.5,419.3,335.6,419.2L335.6,419.2z"/>
			<path class="st11" d="M339,420c0.2-0.6,0.4-1.5,0.5-2.1c0.3-0.6,0.4-1.3,0.4-2c0-0.1-0.1-0.2-0.2-0.2c-0.1,0-0.1,0-0.1,0.1
				c-0.4,0.6-0.6,1.4-0.7,2.2c-0.2,0.6-0.2,1.4-0.1,2C338.9,420.1,338.9,420.1,339,420C339,420.1,339,420,339,420L339,420z"/>
			<path class="st11" d="M342.5,421.3c0.4-1.8,0.3-3.6-0.1-5.4c0-0.1-0.1-0.1-0.2-0.1c0,0-0.1,0-0.1,0.1c0,0.9,0,2,0,2.9
				c0,0.8,0,1.7,0.1,2.5C342.3,421.3,342.4,421.3,342.5,421.3L342.5,421.3L342.5,421.3z"/>
			<path class="st11" d="M346.5,421.5c0.1-0.7,0.2-1.5,0.2-2.2c0.1-0.7,0-1.6-0.1-2.3c0-0.1-0.1-0.2-0.2-0.2c-0.1,0-0.1,0.1-0.2,0.2
				c-0.2,0.7-0.2,1.6-0.1,2.3c0,0.7,0,1.5,0.2,2.2c0,0.1,0.1,0.1,0.2,0.1C346.5,421.6,346.5,421.6,346.5,421.5L346.5,421.5z"/>
			<path class="st11" d="M350,421.6c0.1-1.9-0.1-3.6-0.7-5.4c0-0.1-0.1-0.2-0.2-0.1c-0.1,0-0.1,0.1-0.1,0.1
				c-0.4,1.8,0.5,3.6,0.8,5.4C349.7,421.8,349.9,421.8,350,421.6L350,421.6z"/>
			<path class="st11" d="M355.2,419.5c-0.2-0.8-0.5-1.6-0.9-2.4c-0.2-0.7-0.5-1.4-1-1.9c-0.1-0.1-0.5,0-0.4,0.2
				c0.1,0.7,0.4,1.6,0.7,2.2c0.2,0.7,0.6,1.5,1,2.1c0.1,0.1,0.3,0.2,0.4,0.1C355.1,419.8,355.2,419.6,355.2,419.5L355.2,419.5z"/>
			<path class="st11" d="M358.4,419.1c-0.2-0.8-0.6-1.6-1.3-2.3c-0.5-0.8-0.9-1.7-1.6-2.5c-0.1-0.1-0.2-0.1-0.3-0.1
				c-0.1,0-0.1,0.1-0.1,0.2c0,1.8,1.8,3.8,3,4.8h0.1C358.4,419.2,358.5,419.1,358.4,419.1L358.4,419.1z"/>
			<path class="st11" d="M362,416.4c-0.3-0.6-0.7-1.3-1-1.9c-0.3-0.6-0.7-1.1-1.1-1.6c-0.1-0.1-0.2,0-0.3,0v0.1
				c0.4,1.4,1.1,2.6,2.3,3.5C361.9,416.8,362.1,416.6,362,416.4L362,416.4z"/>
			<path class="st11" d="M364.4,414.9c-0.2-0.6-0.6-1.3-1-1.7c-0.3-0.5-0.8-1-1.4-1.4c-0.1-0.1-0.2-0.1-0.2,0
				c-0.1,0.1-0.1,0.2,0,0.2c0.3,0.6,0.7,1.3,1.3,1.9c0.3,0.5,0.7,0.9,1.3,1.3C364.3,415.2,364.4,415,364.4,414.9L364.4,414.9z"/>
			<path class="st11" d="M366.4,413.1c-0.1-0.6-0.4-1.3-0.9-1.7c-0.5-0.7-1.1-1.3-1.8-1.8c-0.1-0.1-0.2,0-0.3,0.1c0,0,0,0.1,0,0.2
				c0.3,0.7,0.8,1.4,1.4,1.9c0.4,0.5,0.9,0.9,1.5,1.5C366.3,413.2,366.4,413.2,366.4,413.1L366.4,413.1z"/>
			<path class="st11" d="M368.9,410.4c-0.2-0.6-0.5-1.1-1-1.6c-0.4-0.5-1-0.8-1.6-1.1c-0.2-0.1-0.3,0.2-0.2,0.3
				c0.3,0.5,0.8,0.9,1.4,1.4c0.4,0.4,0.9,0.8,1.5,1.1c0,0,0.1,0,0.2,0C368.9,410.5,368.9,410.5,368.9,410.4L368.9,410.4z"/>
			<path class="st11" d="M370.4,407.5c-0.3-0.2-0.5-0.3-0.8-0.4c-0.4-0.2-0.7-0.4-1-0.7c-0.5-0.4-1-0.8-1.6-1.3
				c-0.1-0.1-0.2,0-0.3,0.1c0,0.1,0,0.1,0,0.2c0.4,0.7,0.9,1.4,1.6,1.8c0.5,0.4,1.5,0.9,2.1,0.6
				C370.4,407.8,370.5,407.7,370.4,407.5L370.4,407.5L370.4,407.5z"/>
			<path class="st11" d="M371.7,405.7c-1-1-2.4-1.9-3.9-2.3c-0.1,0-0.2,0.1-0.1,0.2c0.9,1,2.6,1.6,3.9,2.2c0.1,0,0.2,0,0.2-0.1
				C371.7,405.8,371.7,405.7,371.7,405.7L371.7,405.7z"/>
			<path class="st11" d="M372.4,402.7c-0.6-0.2-1.3-0.4-1.9-0.6c-0.5-0.3-1.1-0.4-1.8-0.5c-0.2,0-0.3,0.2-0.1,0.4
				c0.5,0.3,1.1,0.6,1.8,0.7c0.6,0.2,1.4,0.3,2.1,0.3c0.1,0,0.1-0.1,0.1-0.2C372.5,402.7,372.4,402.7,372.4,402.7L372.4,402.7z"/>
			<path class="st11" d="M369.6,399.7c0.5,0.8,2.1,0.8,2.9,0.8c0.1,0,0.2-0.1,0.2-0.2s0-0.1-0.1-0.1c-0.9-0.4-2-0.6-2.9-0.5
				C369.6,399.6,369.5,399.7,369.6,399.7C369.5,399.7,369.6,399.7,369.6,399.7L369.6,399.7z"/>
			<path class="st4" d="M367.9,386.4l1.7,14.3c0,0-4.1,15.6-23.6,15.6s-23.6-15.6-23.6-15.6l1.7-14.3H367.9z"/>
			<path class="st14" d="M368,392.3c0,0-7,3.4-22,3.4s-22.2-3.4-22.2-3.4c7.3-1.5,14.8-2.3,22.2-2.5
				C353.4,390,360.8,390.8,368,392.3"/>
			<path class="st4" d="M365.4,207.4h-38.8c-52.9,0-53.7,98.4-53.7,98.4v26.5c0,33.6,27.2,60.7,60.7,60.7l0,0h24.6
				c33.6,0,60.7-27.2,60.7-60.8v-26.4C419,305.9,418.1,207.4,365.4,207.4"/>
			<path class="st15" d="M316.5,325.3c0.1,4.2-3.1,7.7-7.3,7.8c-4.2,0.1-7.7-3.1-7.8-7.3c0-0.2,0-0.4,0-0.5V322
				c-0.1-4.2,3.1-7.7,7.3-7.8c4.2-0.1,7.7,3.1,7.8,7.3c0,0.2,0,0.4,0,0.5V325.3z"/>
			<path class="st15" d="M392.5,325.3c0.1,4.2-3.1,7.7-7.3,7.8c-4.2,0.1-7.7-3.1-7.8-7.3c0-0.2,0-0.4,0-0.5V322
				c-0.1-4.2,3.1-7.7,7.3-7.8c4.2-0.1,7.7,3.1,7.8,7.3c0,0.2,0,0.4,0,0.5V325.3z"/>
			<path class="st16" d="M435.6,281.7c-2,0.9-3.8,2.2-6,1.9c-2-0.3-3.5-1.8-4.8-3c-1.1-1.1-2.2-2.5-3-3.9c-0.7-2-1.5-4.1-2.2-6
				c0.5-2.9,0.6-5.8,0.1-8.8c0.2,0.5,0.5,1,0.7,1.5c0.1,0.2,0.4,0.3,0.6,0.2c0.2-0.1,0.3-0.3,0.2-0.5c-1-3.5-2-7-2.9-10.4
				c-0.5-3.5-1.4-7-2.5-10.3c2.5,0.2,4.8-1,6.2-3.1c0.3-0.5-0.3-1-0.8-0.8c-1.9,1.3-4.2,1.7-6.3,1.3c-0.6-1.7-1.4-3.2-2.2-4.8
				c-1.4-3.6-2.9-7.2-4.8-10.6c-1.3-3.2-2.9-6.3-4.9-9.2c1.4,1.1,2.7,2.3,4.1,3.3c0.3,0.3,0.7,0.3,0.9,0c0.2-0.3,0.3-0.7,0-0.9
				c-3.2-4.2-7.1-7.6-11.6-10.3c-6.2-6.4-13.7-11.4-21.9-14.7c2.4,0.2,4.9,0.4,7.3,0.6c0.8,0.1,0.9-1.3,0.2-1.5
				c-5.6-1.8-11.6-2.5-17.5-2.2c-3.2-0.7-6.5-1.3-9.7-1.5c-2.9-0.2-5.7-0.3-8.7-0.2c2.2-0.7,4.4-1.4,6.6-2c0.5-0.1,0.3-0.8-0.2-0.7
				c-3.5,0.5-7.1,1.6-10.4,2.9c-4.1,0.3-8,0.8-12.1,1.7c2.8-2.2,5.4-4.5,7.8-7.1c0.5-0.6-0.2-1.7-0.9-1.3c-5.2,3.2-10.1,7-15.3,10.3
				c-12.8,3.8-24.9,10.2-32.1,19.7c1.3-3.9,3.4-7.4,6.4-10.2c3.5-3.6,7.6-6.6,10.2-11.2c0.4-0.6-0.4-1.6-1-1c-8,6-19.4,15-17.9,26.1
				c-0.4,0.6-0.7,1.4-1,2c0.5-2.6,0.8-5.2,1-7.9c0-0.6-0.4-1.1-1-1.1c-0.4,0-0.8,0.2-1,0.6c-3,4.7-4.2,10.5-2.9,16.1
				c-2-1.6-4.1-2.9-6.4-4c-0.3-0.2-0.8,0.3-0.4,0.5c0.9,0.7,2,1.5,2.9,2.1c-7.3-3.1-15.6-0.2-19.4,8.3c-0.3,0.7,0.6,1.8,1.3,1
				c4.7-5.6,11.5-8.3,18.1-6.8c-0.4,0-0.8,0.1-1.3,0.2c-4.9,0.9-9,4.2-10.9,8.8c-8.1,8.4-7.4,25.3-5,35.7c0.1,0.3,0.5,0.5,0.8,0.4
				c0.2-0.1,0.4-0.2,0.4-0.4c1.3-5.6,0.4-11.7,0.5-17.3c0.1-2.3,0.3-4.5,0.8-6.7c-0.3,8.3,1,17,1.3,25.2c0.2,9,0.6,20.4-5.2,27.9
				c-1.3,1.6,0.4,4.3,2.3,3c0.3-0.2,0.7-0.5,1-0.7c0,0.3,0.1,0.7,0.1,1c0,0.1,0.1,0.3,0.1,0.4c-1.1,2-4.6,7.8-0.1,7.9
				c3.5,0.1,6-5.5,7.2-8.2c0.2-0.4,0.3-0.7,0.4-1.1c0.2,0.4,0.5,0.7,0.8,1c0.7,0.6,1.8,0.6,2.5,0c2.1-1.8,1.4-5.3,0.6-7.6
				c-0.2-0.5-0.4-1-0.6-1.6c1.8-2.4,3.9-4.7,5.8-6.9c5-5.5,10.3-10.8,14.5-17c3.1-4.5,5-9.6,4.6-15c4.4,5.6,11.9,9.2,19,9.8
				c0.6,0,1.1-0.4,1.1-1c0-0.4-0.2-0.8-0.6-1c-3.8-2.2-8-3.3-12-5.2c-2-1-3.9-2.3-5.5-3.8c11.9,4.6,26.5,5.7,36.7,6.4
				c13.8,0.8,27.3,0.8,40.8,4.9c8.1,2.5,15.7,6.3,22.7,11.2c6.7,4.8,11.3,11.1,15.8,17.6c-0.2,3.3,0.7,7.4,1.5,10.1
				c1,4.1,4.3,9.6,9.2,8.1c0.9-0.3,1.5-1.1,1.3-2.1c-0.4-1.7-1.4-3.1-2.6-4.3c-1.5-1.6-2-4-2.4-5.9c-0.1-0.6-0.2-1.3-0.4-2
				c0.7-0.6,1-1.7,0.7-2.6c-0.2-0.6-0.4-1.3-0.6-2c0.4,0,0.8,0,1.3-0.2c1.7,2.4,4.2,4.3,7.1,5.1c0.4,0.1,0.9-0.2,1-0.6
				c0.1-0.3,0-0.5-0.2-0.7c-1.7-2-3.9-3.3-5.6-5.3c-0.5-0.6-0.9-1.3-1.4-1.9c-0.4-1.7-0.9-3.3-1.5-4.9c0.3,0.2,0.5,0.5,0.9,0.7
				c3.8,2.7,9.2,3,11.9-1.5c0.3-0.4,0.2-0.9-0.1-1.3C436.5,281.3,436,281.3,435.6,281.7z M332.8,224.3L332.8,224.3v0.2V224.3z
				 M314,223.6c-0.2-1-0.3-2.2-0.4-3.3C313.8,221.3,313.9,222.4,314,223.6L314,223.6z M357.3,236.7c0.7,1.7,1.5,3.3,2,5
				C358.5,240.2,357.8,238.4,357.3,236.7L357.3,236.7z M277.8,277.8c0.4-0.1,0.7-0.3,1-0.5l-1,1.1
				C277.8,278.2,277.8,278,277.8,277.8L277.8,277.8z M279.8,276.1L279.8,276.1l-0.2,0.2C279.7,276.3,279.8,276.2,279.8,276.1
				L279.8,276.1z M351.3,252.9l0.1,0.1L351.3,252.9L351.3,252.9z M357.8,252.9c0.2,0.2,0.4,0.4,0.6,0.5l-1-0.1
				C357.5,253.2,357.7,253,357.8,252.9L357.8,252.9z"/>
			<path class="st17" d="M300.1,241.4c14.4,7.1,31.6,7.8,47.3,8.9c17.3,1.1,34.1,3,50.3,9.7c0.6,0.2,0.9-0.7,0.4-1
				c-13.4-8.5-30.1-10-45.7-11.2c-17.7-1.4-34.6-2.7-51.7-7.9C299.9,239.5,299.2,240.9,300.1,241.4L300.1,241.4z"/>
			<path class="st17" d="M290.5,220.7c4.5-12.3,19-16.3,30.4-19.6c0.4-0.1,0.6-0.5,0.5-0.9c-0.1-0.4-0.5-0.6-0.9-0.5
				c-10.4,1.5-31.4,6.9-30.8,20.9c0,0.2,0.2,0.4,0.4,0.4C290.3,220.9,290.5,220.8,290.5,220.7L290.5,220.7z"/>
			<path class="st17" d="M277,233.9c-7,0-8.1,9.5-8.8,14.7c-0.8,8.7-0.7,17.4,0.4,26.1c0,0.4,0.3,0.7,0.7,0.7s0.7-0.3,0.7-0.7
				c0.6-6.6,0.2-13.2,0.4-19.9c0.2-5.6,0.1-17.3,6.7-19.9C277.6,234.6,277.5,233.9,277,233.9L277,233.9z"/>
			<path class="st17" d="M282.6,238.9c-12.1-4.6-13.4,27.1-13.6,33.8c0,0.5,0.4,0.8,0.8,0.8c0.4,0,0.7-0.3,0.8-0.6
				c1.3-5.5,1.8-11.3,2.9-16.8c0.8-4.3,2.7-16,8.8-16.4c0.2,0,0.4-0.2,0.4-0.4C282.9,239.1,282.8,238.9,282.6,238.9L282.6,238.9z"/>
			<path class="st17" d="M289.2,247.7c2.1,13.1-3.3,22.6-10.6,32.9c-0.4,0.5,0.4,1.1,0.9,0.7c8.8-8.8,15.7-21.7,10.3-33.9
				C289.6,247.2,289.2,247.5,289.2,247.7z"/>
			<path class="st17" d="M288.8,243.7c-6.4-2.2-10.4,8.9-12,13c-2.8,7.8-4.8,16-5.7,24.2c0,0.5,0.4,0.9,0.9,0.9
				c0.3,0,0.6-0.2,0.8-0.4c5.1-11.9,4.6-28.9,16.2-36.9c0.2-0.1,0.3-0.4,0.1-0.6C289.1,243.8,289,243.7,288.8,243.7L288.8,243.7z"/>
			<path class="st17" d="M298,229.3c9,9.9,23.1,14,36.1,15.7c14.4,2,29.1,2.1,43.6,2.8c0.2,0,0.3-0.4,0-0.4
				c-27.2-4.2-55.9-0.9-78.8-19c-0.2-0.2-0.6-0.1-0.8,0.1C297.8,228.8,297.8,229.1,298,229.3L298,229.3z"/>
			<path class="st17" d="M306.6,224.2c7.6,9.3,20.9,10.6,31.9,12.8c17.4,3.4,34.7,8.1,52.3,11.1c0.2,0.1,0.5-0.1,0.6-0.3
				s-0.1-0.5-0.3-0.6c-15.7-4.7-32-7.8-48.1-11.1c-12-2.4-26.9-3.1-35.9-12.4C306.8,223.5,306.3,223.9,306.6,224.2z"/>
			<path class="st17" d="M295.7,225c10.1-1.4,19.8-4.6,30-5.4c10.4-0.8,20.9,0.2,31,3c0.3,0.1,0.6-0.2,0.7-0.5
				c0-0.3-0.1-0.6-0.4-0.7c-19.5-7.8-42.6-5.8-61.5,3.1C295.2,224.6,295.4,225,295.7,225L295.7,225z"/>
			<path class="st17" d="M314.4,225c12.9,3.3,26.1,5.2,39.2,7.5s26.3,5.3,39.2,8.9c0.9,0.2,1.3-1,0.4-1.5
				c-24.5-10.2-52.5-12.8-78.7-15.6C314.1,224.4,314.1,224.9,314.4,225L314.4,225z"/>
			<path class="st17" d="M297.2,220.7c23.8-15.1,54.2-8.9,79.7-2.4c0.3,0,0.6-0.2,0.6-0.5c0-0.3-0.1-0.5-0.3-0.6
				c-23.8-8.2-59.6-15.8-80.3,3.2c-0.1,0.1-0.1,0.2,0,0.3C297,220.8,297.1,220.8,297.2,220.7L297.2,220.7z"/>
			<path class="st17" d="M295.1,218.7c2.1-1.1,3.4-3.2,5.3-4.7c2.5-2,5.2-3.8,8.1-5.1c6-2.9,12.5-4.9,19.2-6
				c12.3-2.3,25.8-2.6,38.1-0.2c0.4,0.1,0.8-0.1,1-0.5c0.1-0.4-0.1-0.8-0.5-1l0,0c-12.6-5-27.6-4-40.7-1.3c-7,1.4-13.8,3.8-20,7.2
				c-4,2.3-10.3,6.6-10.6,11.6c0,0.1,0.1,0.2,0.2,0.2C295,218.7,295.1,218.7,295.1,218.7L295.1,218.7z"/>
			<path class="st17" d="M369.5,226.2c7.1,5,15.5,7.4,23.1,11.5c8.4,4.4,14.6,10.1,20.6,17.5c0.4,0.5,1.6,0,1.3-0.7
				c-7.2-17.1-27.7-24.9-44.2-29.9C369.3,224.1,368.7,225.7,369.5,226.2L369.5,226.2z"/>
			<path class="st17" d="M360.9,204.9c20.2,2.8,33.6,16.1,44.1,32.6c0.2,0.2,0.5,0.3,0.8,0.1c0.2-0.2,0.3-0.4,0.2-0.6
				c-7.8-18-25-32.1-44.9-32.7C360.6,204.2,360.5,204.8,360.9,204.9L360.9,204.9z"/>
			<path class="st17" d="M364.3,194.6c14,3.4,24.3,13.3,34.5,22.7c0.2,0.2,0.5,0.1,0.7-0.1c0.1-0.2,0.1-0.4,0-0.6
				c-8.3-10.4-20.9-22.7-35.1-23.1c-0.3,0-0.5,0.2-0.5,0.5C364,194.4,364.1,194.6,364.3,194.6L364.3,194.6z"/>
			<path class="st17" d="M392.8,246.5c11.9,7.4,16.6,21.5,24,32.6c0.2,0.2,0.5,0.3,0.8,0.1c0.2-0.2,0.3-0.4,0.2-0.6
				c-5.6-12.4-12-26.2-24.6-32.6c-0.1-0.1-0.3,0-0.4,0.1C392.6,246.2,392.7,246.4,392.8,246.5L392.8,246.5z"/>
			<path class="st17" d="M307.3,246.4c11.1,12.2,30.9,11.4,45.9,13c21.2,2.4,41.9,6.3,59,19.7c0.4,0.3,0.9-0.2,0.5-0.5
				c-14.3-14.4-34.1-17.3-53.3-20.3c-16.5-2.6-38.6-0.2-51.8-12.2c-0.1-0.1-0.2-0.1-0.3,0C307.2,246.2,307.3,246.3,307.3,246.4
				L307.3,246.4z"/>
			<path class="st17" d="M293.6,242.8c0.8-7.1,6-12.1,10.8-16.9c0.3-0.3,0.2-0.7-0.1-1c-0.2-0.2-0.5-0.2-0.8-0.1
				c-6.4,3.8-11.8,10.3-11.5,18c0,0.4,0.3,0.7,0.7,0.7S293.7,243.2,293.6,242.8L293.6,242.8z"/>
			<path class="st18" d="M318.8,368.4c16.6,4.4,34.1,4.4,50.7,0C396.7,361.1,318.8,368.4,318.8,368.4z"/>
			<ellipse class="st18" cx="311.7" cy="324.7" rx="2.7" ry="4.3"/>
			<ellipse class="st18" cx="381.8" cy="324.7" rx="2.7" ry="4.3"/>
			<path class="st19" d="M46.4,270.9h116.7c5.5,0,10,4.5,10,10v41.6c0,5.5-4.5,10-10,10H46.4c-5.5,0-10-4.5-10-10v-41.6
				C36.4,275.4,40.9,270.9,46.4,270.9z"/>
			<text transform="matrix(1 0 0 1 62.2617 312.9512)" class="st20 st21 st22">HTML5</text>
			<path class="st19" d="M501,174.8h116.7c5.5,0,10,4.5,10,10v41.6c0,5.5-4.5,10-10,10H501c-5.5,0-10-4.5-10-10v-41.6
				C491,179.3,495.5,174.8,501,174.8z"/>
			<text transform="matrix(1 0 0 1 521.3213 216.8521)" class="st20 st21 st22">CSS3</text>
			
				<image style="overflow:visible;opacity:0.3;enable-background:new    ;" width="298" height="243" xlink:href="38B3AEDBD2886C6A.png"  transform="matrix(1.0388 0 0 1.0388 402.4352 -45.0518)">
			</image>
			<path class="st0" d="M506.3,70.1h1.5c0-0.3-0.1-0.5,0-0.8c-0.1-12.8,10.2-23.3,23-23.4c2.3,0,4.6,0.3,6.8,0.9
				c6.5-18.7,26.8-28.6,45.5-22.1c13.7,4.7,23.1,17.2,24,31.6c18,0.1,32.5,14.8,32.4,32.8c0,0,0,0,0,0.1v0.9
				c0,18.1-14.1,34.3-32.2,34.3h-39.5h-0.4h-0.4h-60.6c-14.3,0-25.3-12.9-25.3-27.2v-0.8C481,82.1,492.1,70.1,506.3,70.1"/>
			
				<image style="overflow:visible;opacity:0.3;enable-background:new    ;" width="249" height="212" xlink:href="38B3AEDBD2886C6E.png"  transform="matrix(1.0381 0 0 1.0381 225.1793 -60.6783)">
			</image>
			<path class="st0" d="M321.3,39.3h1c0-0.2,0-0.3,0-0.5c0-8.7,6.9-15.6,15.5-15.7c1.6,0,3.1,0.2,4.6,0.6
				c4.5-12.5,18.2-19.1,30.8-14.6c9.1,3.2,15.3,11.5,16,21.1c12.2,0.1,21.9,10,21.8,22.2l0,0v0.6c0,12.3-9.5,23.1-21.7,23.1h-68
				c-9.6,0-17.1-8.8-17.1-18.4v-0.6C304.2,47.4,311.7,39.3,321.3,39.3"/>
			<path class="st4" d="M375.2,483.6c3.3,1.6,2.1,2.7,0,3.1c-0.4-0.4-0.9-0.6-1.6-0.5c-18.4,2.1-35.9,7.3-53.3,13
				c0-1.5-48.6,21.5-51,2.6c0-0.2-0.1-0.3-0.1-0.5c0.1-0.2,0.1-0.4,0.1-0.5c0.5-10.5,2.6-20.6,3.9-31.1c0.9-7.4,6.4-5.5,11.7-4
				c4.1,1.1,8.2,1.1,12.3,2.2c1.4,7.8-0.7,15.6-4,22.8c-0.6,0.5-2.6,5.4-2.8,5.8c-1.3,2.4,2.4,4.5,3.6,2.1c0.9-1.8,1.8-3.5,2.6-5.3
				c12-9.5,31-9.3,45.6-9.7c0.6,0.5,1.5,0.5,2.2,0.2c6.4-3.1,13.6-3.4,20.5-2.8C368.5,481.3,371.9,482.2,375.2,483.6z"/>
			<path class="st4" d="M424.3,492c0,0.2,0,0.3-0.1,0.5c0,0.2,0.1,0.3,0.1,0.5c-0.1,37.3-64,2.8-81.3,3.6c-0.4,0-0.8-0.1-1.1-0.3
				c-2.6-0.1-2.6-4.2,0.1-4.2c6.3,0,12.1-0.4,17.9-2.7c5.1-2,10.3-3.5,15.6-4.7c4.5-0.9,9.5-1.8,14-0.4c2.6,0.7,5.2,2.2,8,1.9h0.2
				c-3.1-4.9-7.6-18.9-6-19.8c0.7-0.4,1.5-1.5,2.4-1.7c1.8-0.5,3.9-0.4,5.7-0.8c3.1-0.6,6.3-1.1,9.5-1.9c3.3-0.6,7.9-3,10,0
				c2,2.7,3,8.9,3.5,11.8C423.8,479.9,424.2,485.9,424.3,492z M420.2,492.5c0-0.2-0.1-0.3-0.1-0.5c0-4.2,0-27.8-5.9-26.6
				c-3.8,0.7-7.6,1.6-11.4,2.3c-2.4,0.3-4.8,0.8-7.1,1.6c1.1,6.2,3.1,12.2,7.1,17.1h0.3c2.5,0.4,1.6,4.2-0.8,4.1
				c-0.5,0.2-1,0.1-1.6-0.1c-2.5-0.1-4.9,0.7-7.3-0.1c-2.6-0.9-5.5-2.2-8.3-2.2c-5.5,0-10.6,1.4-15.8,2.7c-4.4,1.1-8.5,3.3-13,4.4
				c23.5,6.7,63.7,22.3,63.7-2.1C420.1,492.8,420.1,492.6,420.2,492.5z"/>
			<path class="st4" d="M420.1,492c0,0.2,0,0.3,0.1,0.5c0,0.2-0.1,0.3-0.1,0.5c-0.1,24.4-40.2,8.8-63.7,2.1c4.4-1,8.5-3.2,13-4.4
				c5.2-1.4,10.4-2.7,15.8-2.7c2.8,0,5.7,1.3,8.3,2.2c2.4,0.8,4.9,0,7.3,0.1c0.4,0.3,1,0.3,1.6,0.1c2.4,0.1,3.3-3.6,0.8-4.1H403
				c-4-4.9-5.9-11.1-7.1-17.1c2.3-0.7,4.7-1.3,7.1-1.6c3.8-0.7,7.6-1.6,11.4-2.3C420.1,464.1,420.1,487.8,420.1,492z"/>
			<path class="st23" d="M445.7,564.2c0,2.7-1.8,5-4.1,5H245.4c-2.2,0-4.1-2.2-4.1-5l0,0c0-2.7,1.8-5,4.1-5h196.2
				C443.9,559.2,445.7,561.4,445.7,564.2z"/>
			<path class="st24" d="M243.4,564.8h200.5c1.7,0,2.1-1.5,1-3.2l-2-3.3l-0.2-0.3l-21.6-36.4c-0.8-1-2.2-1.6-3.5-1.5H265.2
				c-1.5,0-2.9,0.6-3.3,1.5l-18,36.4l-0.1,0.3l-1.7,3.3C241.1,563.4,241.7,564.8,243.4,564.8z"/>
			<g id="keys">
				<path class="st18" d="M409.7,548.5c-0.2-0.4,0.3-0.8,1.1-0.8h8.2c0.7-0.1,1.5,0.2,2,0.8l2.1,4.3c0.2,0.4-0.3,0.8-1.1,0.8h-8.4
					c-0.7,0.1-1.5-0.2-2-0.8L409.7,548.5z"/>
				<path class="st18" d="M422.3,548.5c-0.2-0.4,0.3-0.8,1.1-0.8h8.2c0.7,0,1.5,0.2,2,0.8l2.4,4.3c0.2,0.4-0.2,0.8-1.1,0.8h-8.4
					c-0.7,0.1-1.5-0.2-2-0.8L422.3,548.5z"/>
				<path class="st18" d="M384.4,548.5c-0.1-0.4,0.4-0.8,1.4-0.8h8.2c0.8,0,1.7,0.3,1.9,0.8l1.6,4.3c0.1,0.4-0.4,0.8-1.4,0.8h-8.4
					c-0.9,0-1.7-0.3-1.9-0.8L384.4,548.5z"/>
				<path class="st18" d="M397,548.5c-0.1-0.4,0.4-0.8,1.3-0.8h8.2c0.7-0.1,1.5,0.2,1.9,0.8l1.8,4.3c0.2,0.4-0.4,0.8-1.3,0.8h-8.4
					c-0.9,0-1.8-0.3-1.9-0.8L397,548.5z"/>
				<path class="st18" d="M359,548.5c-0.1-0.4,0.6-0.8,1.5-0.8h8.2c0.8,0,1.7,0.3,1.7,0.8l0.9,4.3c0.1,0.4-0.5,0.8-1.5,0.8h-8.4
					c-0.9,0-1.7-0.3-1.7-0.8L359,548.5z"/>
				<path class="st18" d="M371.6,548.5c-0.1-0.4,0.5-0.8,1.4-0.8h8.2c0.8,0,1.7,0.3,1.8,0.8l1.1,4.3c0.1,0.4-0.5,0.8-1.4,0.8h-8.4
					c-0.9,0-1.7-0.3-1.8-0.8L371.6,548.5z"/>
				<path class="st18" d="M333.7,548.5c0-0.4,0.7-0.8,1.6-0.8h8.2c0.8,0,1.6,0.3,1.6,0.8l0.2,4.3c0,0.4-0.6,0.8-1.6,0.8h-8.4
					c-0.9,0-1.6-0.3-1.6-0.8V548.5z"/>
				<path class="st18" d="M346.4,548.5c0-0.4,0.6-0.8,1.5-0.8h8.2c0.8,0,1.6,0.3,1.7,0.8l0.5,4.3c0.1,0.4-0.6,0.8-1.5,0.8h-8.4
					c-0.9,0-1.7-0.3-1.7-0.8L346.4,548.5z"/>
				<path class="st18" d="M321,548.5c0-0.4,0.7-0.8,1.6-0.8h8.2c0.8,0,1.6,0.3,1.6,0.8v4.3c0,0.4-0.7,0.8-1.6,0.8h-8.4
					c-0.9,0-1.6-0.3-1.6-0.8L321,548.5z"/>
				<path class="st18" d="M295.6,548.5c0.1-0.4,0.8-0.8,1.8-0.8h8.2c0.8,0,1.5,0.3,1.5,0.8l-0.6,4.3c-0.1,0.4-0.8,0.8-1.8,0.8h-8.4
					c-0.9,0-1.6-0.3-1.5-0.8L295.6,548.5z"/>
				<path class="st18" d="M308.2,548.5c0.1-0.4,0.8-0.8,1.7-0.8h8.2c0.8,0,1.6,0.3,1.5,0.8l-0.3,4.3c0,0.4-0.8,0.8-1.7,0.8h-8.4
					c-0.9,0-1.6-0.3-1.5-0.8L308.2,548.5z"/>
				<path class="st18" d="M270.4,548.5c0.2-0.4,1-0.8,1.9-0.8h8.2c0.8,0,1.5,0.3,1.3,0.8l-1.3,4.3c-0.1,0.4-0.9,0.8-1.9,0.8h-8.4
					c-0.9,0-1.5-0.3-1.3-0.8L270.4,548.5z"/>
				<path class="st18" d="M283,548.5c0.1-0.4,0.9-0.8,1.8-0.8h8.2c0.8,0,1.5,0.3,1.4,0.8l-0.9,4.3c-0.1,0.4-0.9,0.8-1.8,0.8h-8.4
					c-0.9,0-1.5-0.3-1.4-0.8L283,548.5z"/>
				<path class="st18" d="M284.8,547.6h8.2c0.9,0,1.6,0.4,1.5,0.8l-0.9,4.3c-0.1,0.5-0.9,0.8-2,0.8h-8.4c-0.9,0-1.7-0.4-1.5-0.8
					l1.3-4.3C283,548.1,283.8,547.6,284.8,547.6z M291.6,553.5c0.8,0,1.6-0.3,1.7-0.7l0.9-4.3c0.1-0.4-0.5-0.7-1.3-0.7h-8.2
					c-0.8,0-1.6,0.3-1.7,0.7l-1.3,4.3c-0.1,0.4,0.4,0.7,1.3,0.7H291.6z"/>
				<path class="st18" d="M312,547.2c0.8,0,1.5-0.3,1.6-0.7l0.5-4.3c0-0.4-0.5-0.7-1.3-0.7h-7.9c-0.7,0-1.5,0.3-1.6,0.7l-0.8,4.3
					c-0.1,0.4,0.5,0.7,1.3,0.7H312z"/>
				<path class="st18" d="M278.7,542.2c0.1-0.4,0.9-0.8,1.8-0.8h7.9c0.8,0,1.4,0.3,1.3,0.8l-1.1,4.3c-0.1,0.4-0.9,0.8-1.8,0.8h-8.1
					c-0.8,0-1.5-0.3-1.3-0.8L278.7,542.2z"/>
				<path class="st18" d="M290.9,542.2c0.1-0.4,0.8-0.8,1.7-0.8h7.9c0.8,0,1.5,0.3,1.4,0.8l-0.8,4.3c-0.1,0.4-0.8,0.8-1.7,0.8h-8.1
					c-0.8,0-1.5-0.3-1.4-0.8L290.9,542.2z"/>
				<path class="st18" d="M254.4,542.2c0.4-0.5,1.1-0.8,1.9-0.8h7.9c0.8,0,1.4,0.3,1.1,0.8l-1.7,4.3c-0.4,0.5-1.1,0.8-1.9,0.8h-8.1
					c-0.8,0-1.4-0.3-1.1-0.8L254.4,542.2z"/>
				<path class="st18" d="M266.5,542.2c0.4-0.5,1.1-0.8,1.9-0.8h7.9c0.8,0,1.4,0.3,1.3,0.8l-1.5,4.3c-0.1,0.4-0.9,0.8-1.9,0.8h-8.1
					c-0.8,0-1.4-0.3-1.3-0.8L266.5,542.2z"/>
				<path class="st18" d="M364.2,542.2c-0.1-0.4,0.5-0.8,1.4-0.8h7.9c0.8,0,1.6,0.3,1.7,0.8l1,4.3c0.1,0.4-0.5,0.8-1.4,0.8h-8.1
					c-0.8,0-1.6-0.3-1.7-0.8L364.2,542.2z"/>
				<path class="st18" d="M339.8,542.2c0-0.4,0.6-0.8,1.5-0.8h7.9c0.8,0,1.6,0.3,1.6,0.8l0.4,4.3c0,0.4-0.6,0.8-1.5,0.8h-8.1
					c-0.8,0-1.6-0.3-1.6-0.8L339.8,542.2z"/>
				<path class="st18" d="M352,542.2c0-0.4,0.6-0.8,1.5-0.8h7.9c0.8,0,1.6,0.3,1.7,0.8l0.7,4.3c0.1,0.4-0.5,0.8-1.5,0.8h-8.1
					c-0.8,0-1.6-0.3-1.7-0.8L352,542.2z"/>
				<path class="st18" d="M400.8,542.2c-0.2-0.4,0.3-0.8,1.1-0.8h7.9c0.7-0.1,1.5,0.2,1.9,0.8l2,4.3c0.2,0.4-0.3,0.8-1.1,0.8h-8.2
					c-0.7,0.1-1.5-0.2-1.9-0.8L400.8,542.2z"/>
				<path class="st18" d="M376.3,542.2c-0.1-0.4,0.5-0.8,1.3-0.8h7.9c0.8,0,1.6,0.3,1.8,0.8l1.4,4.3c0.1,0.4-0.4,0.8-1.3,0.8h-8.1
					c-0.8,0-1.7-0.3-1.8-0.8L376.3,542.2z"/>
				<path class="st18" d="M388.5,542.2c-0.1-0.4,0.4-0.8,1.3-0.8h7.9c0.7-0.1,1.4,0.2,1.8,0.8l1.7,4.3c0.2,0.4-0.4,0.8-1.3,0.8h-8.1
					c-0.8,0-1.7-0.3-1.8-0.8L388.5,542.2z"/>
				<path class="st18" d="M315.4,542.2c0-0.4,0.7-0.8,1.6-0.8h7.9c0.8,0,1.5,0.3,1.5,0.8l-0.2,4.3c0,0.4-0.7,0.8-1.6,0.8h-8.1
					c-0.8,0-1.5-0.3-1.5-0.8L315.4,542.2z"/>
				<path class="st18" d="M327.6,542.2c0-0.4,0.7-0.8,1.6-0.8h7.9c0.8,0,1.5,0.3,1.6,0.8l0.1,4.3c0,0.4-0.6,0.8-1.6,0.8h-8.1
					c-0.8,0-1.6-0.3-1.6-0.8L327.6,542.2z"/>
				<path class="st18" d="M301.6,535.8c0.1-0.4,0.8-0.8,1.6-0.8h7.6c0.8,0,1.4,0.3,1.4,0.8l-0.6,4.3c-0.1,0.4-0.8,0.8-1.6,0.8h-7.8
					c-0.8,0-1.5-0.3-1.4-0.8L301.6,535.8z"/>
				<path class="st18" d="M278.1,535.8c0.4-0.5,1-0.8,1.7-0.8h7.6c0.8,0,1.4,0.3,1.3,0.8l-1.3,4.3c-0.1,0.4-0.9,0.8-1.7,0.8h-7.8
					c-0.8,0-1.4-0.3-1.3-0.8L278.1,535.8z"/>
				<path class="st18" d="M289.8,535.8c0.1-0.4,0.8-0.8,1.7-0.8h7.6c0.8,0,1.4,0.3,1.3,0.8l-0.9,4.3c-0.1,0.4-0.8,0.8-1.7,0.8h-7.8
					c-0.8,0-1.4-0.3-1.3-0.8L289.8,535.8z"/>
				<path class="st18" d="M360.3,535.8c-0.1-0.4,0.5-0.8,1.3-0.8h7.6c0.8,0,1.6,0.3,1.6,0.8l0.9,4.3c0.1,0.4-0.5,0.8-1.3,0.8h-7.8
					c-0.8,0-1.6-0.3-1.6-0.8L360.3,535.8z"/>
				<path class="st18" d="M336.8,535.8c0-0.4,0.6-0.8,1.5-0.8h7.6c0.8,0,1.5,0.3,1.5,0.8l0.3,4.3c0,0.4-0.6,0.8-1.5,0.8h-7.8
					c-0.8,0-1.5-0.3-1.5-0.8L336.8,535.8z"/>
				<path class="st18" d="M348.5,535.8c0-0.4,0.5-0.8,1.4-0.8h7.6c0.8,0,1.5,0.3,1.6,0.8l0.6,4.3c0.1,0.4-0.5,0.8-1.4,0.8h-7.8
					c-0.8,0-1.6-0.3-1.6-0.8L348.5,535.8z"/>
				<path class="st18" d="M395.4,535.8c-0.2-0.4,0.3-0.8,1.1-0.8h7.6c0.7,0,1.4,0.2,1.8,0.8l1.9,4.3c0.2,0.4-0.3,0.8-1.1,0.8h-7.8
					c-0.7,0.1-1.4-0.2-1.8-0.8L395.4,535.8z"/>
				<path class="st18" d="M371.9,535.8c-0.1-0.4,0.4-0.8,1.3-0.8h7.6c0.8,0,1.6,0.3,1.7,0.8l1.3,4.3c0.1,0.4-0.4,0.8-1.3,0.8h-7.8
					c-0.8,0-1.6-0.3-1.7-0.8L371.9,535.8z"/>
				<path class="st18" d="M383.6,535.8c-0.1-0.4,0.4-0.8,1.1-0.8h7.6c0.7-0.1,1.4,0.2,1.8,0.8l1.6,4.3c0.2,0.4-0.4,0.8-1.1,0.8h-7.9
					c-0.8,0-1.6-0.3-1.8-0.8L383.6,535.8z"/>
				<path class="st18" d="M313.3,535.8c0.1-0.4,0.7-0.8,1.6-0.8h7.6c0.8,0,1.5,0.3,1.4,0.8l-0.3,4.3c0,0.4-0.7,0.8-1.6,0.8h-7.8
					c-0.8,0-1.5-0.3-1.4-0.8L313.3,535.8z"/>
				<path class="st18" d="M325,535.8c0-0.4,0.7-0.8,1.5-0.8h7.6c0.8,0,1.5,0.3,1.5,0.8v4.3c0,0.4-0.6,0.8-1.5,0.8h-7.9
					c-0.8,0-1.5-0.3-1.5-0.8L325,535.8z"/>
				<path class="st18" d="M297.3,529.4c0.1-0.4,0.8-0.8,1.6-0.8h7.3c0.7,0,1.4,0.3,1.3,0.8l-0.7,4.3c-0.1,0.4-0.8,0.8-1.6,0.8h-7.5
					c-0.8,0-1.4-0.3-1.3-0.8L297.3,529.4z"/>
				<path class="st18" d="M285.9,529.4c0.1-0.4,0.8-0.8,1.7-0.8h7.3c0.7,0,1.3,0.3,1.1,0.8l-1,4.3c-0.1,0.4-0.8,0.8-1.7,0.8h-7.5
					c-0.8,0-1.4-0.3-1.1-0.8L285.9,529.4z"/>
				<path class="st18" d="M353.7,529.4c0-0.4,0.5-0.8,1.3-0.8h7.3c0.7,0,1.5,0.3,1.6,0.8l0.8,4.3c0.1,0.4-0.5,0.8-1.3,0.8h-7.5
					c-0.8,0-1.5-0.3-1.6-0.8L353.7,529.4z"/>
				<path class="st18" d="M331.1,529.4c0-0.4,0.6-0.8,1.4-0.8h7.3c0.7,0,1.4,0.3,1.5,0.8l0.2,4.3c0,0.4-0.6,0.8-1.4,0.8h-7.6
					c-0.8,0-1.5-0.3-1.5-0.8L331.1,529.4z"/>
				<path class="st18" d="M342.3,529.4c0-0.4,0.5-0.8,1.4-0.8h7.3c0.7,0,1.5,0.3,1.5,0.8l0.5,4.3c0,0.4-0.5,0.8-1.4,0.8h-7.5
					c-0.8,0-1.5-0.3-1.5-0.8L342.3,529.4z"/>
				<path class="st18" d="M387.4,529.4c-0.1-0.4,0.3-0.8,1.1-0.8h7.3c0.6,0,1.4,0.2,1.7,0.8l1.8,4.3c0.2,0.4-0.3,0.8-1.1,0.8h-7.5
					c-0.6,0.1-1.4-0.2-1.7-0.8L387.4,529.4z"/>
				<path class="st18" d="M409,522.3c-0.2-0.5,0.1-0.9,0.8-0.9h6.9c0.7,0,1.4,0.3,1.9,0.9l2.7,4.8c0.3,0.5-0.1,0.9-0.8,0.9h-7.3
					c-0.7,0-1.5-0.3-1.9-0.9L409,522.3z"/>
				<path class="st18" d="M398.2,522.3c-0.2-0.5,0.2-0.9,0.9-0.9h7c0.7,0,1.4,0.3,1.8,0.9l2.4,4.8c0.2,0.5-0.1,0.9-0.9,0.9h-7.3
					c-0.7,0-1.4-0.3-1.8-0.9L398.2,522.3z"/>
				<path class="st18" d="M387.5,522.3c-0.2-0.5,0.2-0.9,0.9-0.9h6.9c0.7,0,1.4,0.3,1.7,0.9l2.1,4.8c0.2,0.5-0.2,0.9-0.9,0.9h-7.3
					c-0.7,0-1.4-0.3-1.7-0.9L387.5,522.3z"/>
				<path class="st18" d="M296,522.3c0.3-0.6,0.9-0.9,1.6-0.9h6.9c0.7,0,1.3,0.4,1.1,0.9l-0.9,4.8c-0.1,0.5-0.8,0.9-1.6,0.9h-7.3
					c-0.7,0-1.3-0.4-1.1-0.9L296,522.3z"/>
				<path class="st18" d="M364.9,529.4c-0.1-0.4,0.4-0.8,1.3-0.8h7.3c0.7,0,1.5,0.3,1.6,0.8l1.1,4.3c0.1,0.4-0.4,0.8-1.3,0.8h-7.6
					c-0.8,0-1.5-0.3-1.6-0.8L364.9,529.4z"/>
				<path class="st18" d="M376.1,529.4c-0.1-0.4,0.4-0.8,1.1-0.8h7.3c0.6-0.1,1.3,0.2,1.7,0.8l1.5,4.3c0.1,0.4-0.4,0.8-1.1,0.8H379
					c-0.8,0-1.6-0.3-1.7-0.8L376.1,529.4z"/>
				<path class="st18" d="M308.6,529.4c0.1-0.4,0.7-0.8,1.6-0.8h7.3c0.7,0,1.4,0.3,1.3,0.8l-0.4,4.3c0,0.4-0.7,0.8-1.6,0.8h-7.6
					c-0.8,0-1.4-0.3-1.3-0.8L308.6,529.4z"/>
				<path class="st18" d="M319.8,529.4c0-0.4,0.7-0.8,1.5-0.8h7.3c0.7,0,1.4,0.3,1.4,0.8l-0.1,4.3c0,0.4-0.6,0.8-1.5,0.8h-7.5
					c-0.8,0-1.4-0.3-1.4-0.8L319.8,529.4z"/>
				<path class="st18" d="M425.5,554.9c-0.2-0.4,0.3-0.8,1.1-0.8h8.4c0.7-0.1,1.6,0.2,2.1,0.8l1,1.8c0.2,0.4-0.3,0.8-1.1,0.8h-8.7
					c-0.8,0.1-1.6-0.2-2.1-0.8L425.5,554.9z"/>
				<path class="st18" d="M411.8,554.9c-0.2-0.4,0.4-0.8,1.3-0.8h8.4c0.7-0.1,1.5,0.2,2,0.8l0.9,1.8c0.2,0.4-0.3,0.8-1.3,0.8h-8.7
					c-0.7,0.1-1.5-0.2-2-0.8L411.8,554.9z"/>
				<path class="st18" d="M398.3,554.9c-0.1-0.4,0.4-0.8,1.4-0.8h8.4c0.7-0.1,1.5,0.2,2,0.8l0.7,1.8c0.2,0.4-0.4,0.8-1.3,0.8h-8.7
					c-0.9,0-1.8-0.3-2-0.8L398.3,554.9z"/>
				<path class="st18" d="M384.6,554.9c-0.1-0.4,0.5-0.8,1.4-0.8h8.4c0.9,0,1.8,0.3,1.9,0.8l0.6,1.8c0.1,0.4-0.4,0.8-1.4,0.8h-8.7
					c-0.9,0-1.8-0.3-1.9-0.8L384.6,554.9z"/>
				<path class="st18" d="M371.1,554.9c-0.1-0.4,0.5-0.8,1.5-0.8h8.4c0.9,0,1.7,0.3,1.9,0.8l0.5,1.8c0.1,0.4-0.5,0.8-1.5,0.8h-8.7
					c-0.9,0-1.7-0.3-1.8-0.8L371.1,554.9z"/>
				<path class="st18" d="M357.3,554.9c0-0.4,0.6-0.8,1.5-0.8h8.4c0.9,0,1.7,0.3,1.8,0.8l0.3,1.8c0.1,0.4-0.5,0.8-1.5,0.8h-8.7
					c-0.9,0-1.7-0.3-1.8-0.8L357.3,554.9z"/>
				<path class="st18" d="M343.8,554.9c0-0.4,0.6-0.8,1.6-0.8h8.4c0.9,0,1.7,0.3,1.7,0.8l0.2,1.8c0,0.4-0.6,0.8-1.6,0.8h-8.7
					c-0.9,0-1.7-0.3-1.7-0.8L343.8,554.9z"/>
				<path class="st18" d="M330,554.9c0-0.4,0.7-0.8,1.7-0.8h8.4c0.9,0,1.7,0.3,1.7,0.8l0.1,1.8c0,0.4-0.7,0.8-1.6,0.8h-8.7
					c-0.9,0-1.7-0.3-1.6-0.8L330,554.9z"/>
				<path class="st18" d="M316.6,554.9c0-0.4,0.8-0.8,1.7-0.8h8.4c0.9,0,1.6,0.3,1.6,0.8l-0.1,1.8c0,0.4-0.7,0.8-1.7,0.8h-8.7
					c-0.9,0-1.6-0.3-1.6-0.8L316.6,554.9z"/>
				<path class="st18" d="M302.7,554.9c0.1-0.4,0.8-0.8,1.8-0.8h8.4c0.9,0,1.6,0.3,1.6,0.8l-0.2,1.8c0,0.4-0.8,0.8-1.8,0.8h-8.7
					c-0.9,0-1.6-0.3-1.5-0.8L302.7,554.9z"/>
				<path class="st18" d="M289.4,554.9c0.1-0.4,0.9-0.8,1.8-0.8h8.4c0.9,0,1.6,0.3,1.5,0.8l-0.3,1.8c-0.1,0.4-0.9,0.8-1.8,0.8h-8.7
					c-0.9,0-1.6-0.3-1.5-0.8L289.4,554.9z"/>
				<path class="st18" d="M275.6,554.9c0.1-0.4,0.9-0.8,1.9-0.8h8.4c0.9,0,1.6,0.3,1.4,0.8l-0.5,1.8c-0.1,0.4-0.9,0.8-1.9,0.8h-8.7
					c-0.9,0-1.6-0.3-1.4-0.8L275.6,554.9z"/>
				<path class="st18" d="M262.1,554.9c0.2-0.4,1-0.8,2-0.8h8.4c0.9,0,1.5,0.3,1.4,0.8l-0.6,1.8c-0.1,0.4-1,0.8-1.9,0.8h-8.7
					c-0.9,0-1.5-0.3-1.4-0.8L262.1,554.9z"/>
				<path class="st18" d="M248.3,554.9c0.5-0.5,1.3-0.8,2-0.8h8.4c0.9,0,1.5,0.3,1.3,0.8l-0.7,1.8c-0.2,0.4-1,0.8-2,0.8h-8.7
					c-0.9,0-1.5-0.3-1.3-0.8L248.3,554.9z"/>
				<path class="st18" d="M413.1,542.2c-0.2-0.4,0.3-0.8,1.1-0.8h13.9c0.7,0,1.5,0.2,2,0.8l2.4,4.3c0.2,0.4-0.2,0.8-1,0.8h-14.4
					c-0.7,0.1-1.5-0.2-2-0.8L413.1,542.2z"/>
				<path class="st18" d="M407.1,535.8c-0.2-0.4,0.3-0.8,1-0.8h16.3c0.7,0,1.5,0.3,1.9,0.8l2.4,4.3c0.2,0.4-0.2,0.8-1,0.8h-16.8
					c-0.7,0.1-1.5-0.2-1.9-0.8L407.1,535.8z"/>
				<path class="st18" d="M398.4,529.4c-0.2-0.4,0.3-0.8,1-0.8h21.4c0.7,0,1.4,0.3,1.9,0.8l2.4,4.3c0.2,0.4-0.2,0.8-0.9,0.8H402
					c-0.7,0.1-1.4-0.2-1.8-0.8L398.4,529.4z"/>
				<path class="st18" d="M374.1,522.2c-0.1-0.4,0.4-0.8,1-0.8h9.6c0.6,0,1.3,0.2,1.6,0.8l1.8,5c0.1,0.4-0.3,0.8-1,0.8h-10
					c-0.7,0-1.5-0.3-1.6-0.8L374.1,522.2z"/>
				<path class="st18" d="M307.2,522.2c0.1-0.4,0.7-0.8,1.5-0.8h9.6c0.7,0,1.3,0.3,1.3,0.8l-0.5,5c0,0.4-0.7,0.8-1.5,0.8h-10
					c-0.7,0-1.4-0.3-1.3-0.8L307.2,522.2z"/>
				<path class="st18" d="M251.4,548.5c0.5-0.5,1.3-0.8,2-0.8h14.7c0.8,0,1.5,0.3,1.3,0.8l-1.6,4.3c-0.2,0.4-1,0.8-1.9,0.8h-15.2
					c-0.8,0-1.5-0.3-1.3-0.8L251.4,548.5z"/>
				<path class="st18" d="M257.5,535.8c0.4-0.5,1.1-0.8,1.9-0.8h16.5c0.8,0,1.3,0.3,1.1,0.8l-1.6,4.3c-0.1,0.4-0.9,0.8-1.8,0.8
					h-17.1c-0.8,0-1.4-0.3-1.1-0.8L257.5,535.8z"/>
				<path class="st18" d="M260.5,529.4c0.4-0.5,1-0.8,1.8-0.8h21.3c0.7,0,1.3,0.3,1.1,0.8l-1.4,4.3c-0.1,0.4-0.9,0.8-1.7,0.8h-22.1
					c-0.8,0-1.3-0.3-1-0.8L260.5,529.4z"/>
				<path class="st18" d="M285.4,522.2c0.3-0.5,0.9-0.8,1.6-0.8h6.9c0.7,0,1.3,0.3,1,0.8l-0.4,1.7c-0.1,0.4-0.8,0.8-1.6,0.8h-7.1
					c-0.7,0-1.3-0.3-1-0.8L285.4,522.2z"/>
				<path class="st18" d="M263.9,522.2c0.4-0.5,1-0.8,1.7-0.8h6.9c0.7,0,1.1,0.3,0.9,0.8l-0.7,1.7c-0.4,0.5-1,0.8-1.7,0.8h-7.1
					c-0.7,0-1.1-0.3-0.9-0.8L263.9,522.2z"/>
				<path class="st18" d="M274.7,522.2c0.3-0.5,0.9-0.8,1.7-0.8h6.9c0.7,0,1.1,0.3,1,0.8l-1.7,5c-0.3,0.5-1,0.8-1.7,0.8h-7.3
					c-0.7,0-1.3-0.3-1-0.8L274.7,522.2z"/>
				<path class="st18" d="M320.5,522.2c0-0.4,0.6-0.8,1.4-0.8h49.6c0.7,0,1.5,0.3,1.6,0.8l1.4,5c0.1,0.4-0.4,0.8-1.1,0.8h-51.8
					c-0.7,0-1.4-0.3-1.3-0.8L320.5,522.2z"/>
			</g>
			<path class="st25" d="M426.7,539.9c-0.1-0.1,0-0.2,0.2-0.2c0.2,0,0.3,0.1,0.5,0.2c0.1,0.1,0,0.2-0.2,0.2
				C427,540.1,426.8,540,426.7,539.9z"/>
			<path class="st19" d="M525.6,366.8h116.7c5.5,0,10,4.5,10,10v41.6c0,5.5-4.5,10-10,10H525.6c-5.5,0-10-4.5-10-10v-41.6
				C515.6,371.3,520.1,366.8,525.6,366.8z"/>
			<text transform="matrix(1 0 0 1 545.625 407.8096)" class="st20 st21 st22">React</text>
			<path class="st26" d="M317.8,306.6c-11.8-2.2-24.2-2.2-35.9,0C281.9,306.6,337.1,310.3,317.8,306.6z"/>
			<path class="st26" d="M408.7,306.1c-11.8-2.2-24.2-2.2-35.9,0C353.4,309.8,408.7,306.1,408.7,306.1z"/>
		</g>
	</g>
</g>
</svg>
