<?xml version="1.0" encoding="iso-8859-1"?>
<!-- Generator: Adobe Illustrator 19.0.0, SVG Export Plug-In . SVG Version: 6.00 Build 0)  -->
<svg version="1.1" id="Layer_1" xmlns="http://www.w3.org/2000/svg" xmlns:xlink="http://www.w3.org/1999/xlink" x="0px" y="0px"
	 viewBox="0 0 512 512" style="enable-background:new 0 0 512 512;" xml:space="preserve">
<path style="fill:#F2F2F2;" d="M409.535,464.761L288.867,18.08C285.992,7.434,276.282,0,265.256,0h-18.511
	c-11.027,0-20.735,7.434-23.612,18.08L102.465,464.761c-0.662,2.45-0.146,5.068,1.397,7.083c1.544,2.015,3.936,3.196,6.473,3.196
	h291.329c2.537,0,4.93-1.182,6.473-3.196C409.68,469.829,410.198,467.211,409.535,464.761z"/>
<g>
	<path style="fill:#EB6836;" d="M315.258,115.771l-26.39-97.691C285.992,7.434,276.282,0,265.256,0h-18.511
		c-11.027,0-20.735,7.434-23.612,18.08l-26.391,97.691H315.258z"/>
	<polygon style="fill:#EB6836;" points="330.822,173.384 181.178,173.384 117.748,408.187 394.252,408.187 	"/>
	<path style="fill:#EB6836;" d="M446.234,460.909H65.766c-13.486,0-24.459,10.972-24.459,24.459v2.174
		c0,13.487,10.973,24.459,24.459,24.459h380.467c13.486,0,24.459-10.972,24.459-24.459v-2.174
		C470.692,471.88,459.72,460.909,446.234,460.909z"/>
</g>
<path style="fill:#C74B38;" d="M65.766,460.909c-13.486,0-24.459,10.972-24.459,24.459v2.174c0,13.487,10.973,24.459,24.459,24.459
	h86.964v-51.091H65.766z"/>
<rect x="308.178" y="460.909" style="fill:#FD9D7E;" width="79.355" height="51.091"/>
<path style="fill:#666666;" d="M399.493,205.452c-2.224,0-4.441-0.906-6.049-2.685L256,50.747L118.557,202.767
	c-3.02,3.342-8.176,3.599-11.516,0.58c-3.339-3.02-3.599-8.176-0.579-11.515l143.49-158.709c1.546-1.71,3.743-2.685,6.047-2.685
	c2.305,0,4.503,0.975,6.047,2.685l143.49,158.709c3.019,3.339,2.76,8.495-0.579,11.515
	C403.398,204.757,401.442,205.452,399.493,205.452z"/>
<path style="fill:#E5E5E5;" d="M472.323,189.146H39.677c-13.486,0-24.459,10.972-24.459,24.459v154.361
	c0,13.487,10.973,24.459,24.459,24.459h432.645c13.486,0,24.459-10.972,24.459-24.459V213.605
	C496.781,200.118,485.809,189.146,472.323,189.146z"/>
<g>
	<path style="fill:#CCCCCC;" d="M496.781,213.605c0-13.487-10.973-24.459-24.459-24.459H39.677
		c-13.486,0-24.459,10.972-24.459,24.459v40.221h481.563V213.605z"/>
	<path style="fill:#CCCCCC;" d="M15.219,327.745v40.221c0,13.487,10.973,24.459,24.459,24.459h432.645
		c13.486,0,24.459-10.972,24.459-24.459v-40.221H15.219z"/>
</g>
<path id="SVGCleanerId_0" style="fill:#F7D04A;" d="M496.781,213.605c0-13.487-10.973-24.459-24.459-24.459H39.677
	c-13.486,0-24.459,10.972-24.459,24.459v22.828h481.563V213.605z"/>
<path id="SVGCleanerId_1" style="fill:#808080;" d="M472.323,189.146h-43.015l-47.287,47.287h46.119l47.105-47.105
	C474.287,189.213,473.313,189.146,472.323,189.146z"/>
<g>
	<polygon style="fill:#808080;" points="311.907,189.146 264.62,236.433 310.741,236.433 358.027,189.146 	"/>
	<polygon style="fill:#808080;" points="196.368,189.146 149.081,236.433 195.201,236.433 242.488,189.146 	"/>
	<polygon style="fill:#808080;" points="79.278,189.146 31.992,236.433 78.112,236.433 125.399,189.146 	"/>
</g>
<g>
	<path id="SVGCleanerId_0_1_" style="fill:#F7D04A;" d="M496.781,213.605c0-13.487-10.973-24.459-24.459-24.459H39.677
		c-13.486,0-24.459,10.972-24.459,24.459v22.828h481.563V213.605z"/>
</g>
<g>
	<path id="SVGCleanerId_1_1_" style="fill:#808080;" d="M472.323,189.146h-43.015l-47.287,47.287h46.119l47.105-47.105
		C474.287,189.213,473.313,189.146,472.323,189.146z"/>
</g>
<g>
	<polygon style="fill:#808080;" points="311.907,189.146 264.62,236.433 310.741,236.433 358.027,189.146 	"/>
	<polygon style="fill:#808080;" points="196.368,189.146 149.081,236.433 195.201,236.433 242.488,189.146 	"/>
	<polygon style="fill:#808080;" points="79.278,189.146 31.992,236.433 78.112,236.433 125.399,189.146 	"/>
</g>
<path style="fill:#F7D04A;" d="M15.219,367.966c0,13.487,10.973,24.459,24.459,24.459h432.645c13.486,0,24.459-10.972,24.459-24.459
	v-22.828H15.219V367.966z"/>
<g>
	<path style="fill:#808080;" d="M39.677,392.425h43.015l47.287-47.287h-46.12l-47.105,47.105
		C37.713,392.358,38.687,392.425,39.677,392.425z"/>
	<polygon style="fill:#808080;" points="200.093,392.425 247.38,345.138 201.259,345.138 153.973,392.425 	"/>
	<polygon style="fill:#808080;" points="315.632,392.425 362.919,345.138 316.799,345.138 269.512,392.425 	"/>
	<polygon style="fill:#808080;" points="432.722,392.425 480.008,345.138 433.888,345.138 386.601,392.425 	"/>
</g>
<g>
	<path style="fill:#EB6836;" d="M160.34,325.028c-11.688,0-21.197-9.509-21.197-21.197v-39.134c0-4.503,3.649-8.153,8.153-8.153
		s8.153,3.65,8.153,8.153v39.134c0,2.697,2.195,4.892,4.892,4.892c2.697,0,4.892-2.195,4.892-4.892v-39.134
		c0-4.503,3.649-8.153,8.153-8.153s8.153,3.65,8.153,8.153v39.134C181.537,315.518,172.028,325.028,160.34,325.028z"/>
	<path style="fill:#EB6836;" d="M225.56,325.029c-3.034,0-5.886-1.7-7.29-4.508l-10.644-21.288v17.642
		c0,4.503-3.649,8.153-8.153,8.153c-4.504,0-8.153-3.65-8.153-8.153v-52.178c0-3.782,2.6-7.066,6.279-7.934
		c3.687-0.87,7.475,0.907,9.166,4.288l10.644,21.288v-17.642c0-4.503,3.649-8.153,8.153-8.153c4.504,0,8.153,3.65,8.153,8.153
		v52.178c0,3.782-2.6,7.066-6.279,7.934C226.809,324.957,226.181,325.028,225.56,325.029z"/>
	<path style="fill:#EB6836;" d="M261.435,325.028h-9.783c-4.504,0-8.153-3.65-8.153-8.153v-52.178c0-4.503,3.649-8.153,8.153-8.153
		h9.783c13.486,0,24.459,10.972,24.459,24.459v19.567C285.894,314.056,274.921,325.028,261.435,325.028z M259.805,308.722h1.631
		c4.496,0,8.153-3.657,8.153-8.153v-19.567c0-4.496-3.657-8.153-8.153-8.153h-1.631V308.722z"/>
	<path style="fill:#EB6836;" d="M329.919,298.938c4.504,0,8.153-3.65,8.153-8.153s-3.649-8.153-8.153-8.153h-17.936v-9.783h17.936
		c4.504,0,8.153-3.65,8.153-8.153c0-4.503-3.649-8.153-8.153-8.153H303.83c-4.504,0-8.153,3.65-8.153,8.153v52.178
		c0,4.503,3.649,8.153,8.153,8.153h26.089c4.504,0,8.153-3.65,8.153-8.153s-3.649-8.153-8.153-8.153h-17.936v-9.783H329.919z"/>
	<path style="fill:#EB6836;" d="M390.251,290.786v-9.783c0-13.487-10.973-24.459-24.459-24.459h-9.783
		c-4.504,0-8.153,3.65-8.153,8.153v52.178c0,4.503,3.649,8.153,8.153,8.153c4.504,0,8.153-3.65,8.153-8.153V298.92
		c0.179,0.012,0.361,0.018,0.544,0.018h0.57c-0.096,1.4,0.162,2.843,0.835,4.189l8.696,17.393c1.427,2.857,4.308,4.508,7.298,4.508
		c1.225,0,2.469-0.277,3.641-0.862c4.026-2.013,5.659-6.91,3.646-10.938l-7.148-14.298
		C386.677,298.854,390.251,295.24,390.251,290.786z M364.161,282.651v-9.802h1.631c4.496,0,8.153,3.657,8.153,8.153v1.631h-9.24
		C364.522,282.633,364.341,282.638,364.161,282.651z"/>
</g>
<g>
</g>
<g>
</g>
<g>
</g>
<g>
</g>
<g>
</g>
<g>
</g>
<g>
</g>
<g>
</g>
<g>
</g>
<g>
</g>
<g>
</g>
<g>
</g>
<g>
</g>
<g>
</g>
<g>
</g>
</svg>
