<?xml version="1.0" encoding="utf-8"?>
<!-- Generator: Adobe Illustrator 21.1.0, SVG Export Plug-In . SVG Version: 6.00 Build 0)  -->
<svg version="1.1" id="Layer_1" xmlns="http://www.w3.org/2000/svg" xmlns:xlink="http://www.w3.org/1999/xlink" x="0px" y="0px"
	 viewBox="0 0 496.2 496.2" style="enable-background:new 0 0 496.2 496.2;" xml:space="preserve">
<style type="text/css">
	.st0{fill:#EF8822;}
	.st1{fill:#261D17;}
	.st2{fill:#969899;}
	.st3{fill:#7F3E09;}
	.st4{fill:#E2A176;}
	.st5{fill:#F3FAFF;}
	.st6{fill:#F4B382;}
	.st7{fill:#232221;}
	.st8{fill:#FFFFFF;}
	.st9{fill:#434444;}
</style>
<path class="st0" d="M248.1,0C111.1,0,0,111.1,0,248.1s111.1,248.1,248.1,248.1s248.1-111.1,248.1-248.1S385.1,0,248.1,0z"/>
<path class="st1" d="M393.9,385c-7.3-26.7-69.5-48.4-146.3-48.4S109.5,358.2,102.3,385c-3.3,11.9-6.9,34.5-10.1,56.4
	c42.5,34.2,96.8,54.8,156,54.8s113.4-20.5,156-54.8C401,419.5,397.2,396.9,393.9,385z"/>
<polygon class="st2" points="247.8,317 208.3,322.2 210.2,335.4 247.8,363.5 286,335.4 287.9,322.2 "/>
<path class="st3" d="M247.8,317l-37.7,18.4c0,0,16.8,28.1,37.6,28.1s38.2-28.1,38.2-28.1L247.8,317z"/>
<path class="st1" d="M247.8,352.7c-20.4,0-30.6-8.5-34.9-13.6l35.3,50.9l35.8-51.8C280,343.2,269.5,352.7,247.8,352.7z M212.9,339.2
	l-2.6-3.8C210.2,335.4,211,337,212.9,339.2z M283.9,338.3c1.4-1.7,2-2.9,2-2.9L283.9,338.3z"/>
<path class="st4" d="M287,282.1h-77.8c12.1,36.6,1,53.3,1,53.3l26.9,17.3h22l26.9-17.3C286,335.4,274.8,318.7,287,282.1z"/>
<g>
	<path class="st5" d="M287.9,322.2l-39.8,30.5c0,0,34,6,34.2,5.8l23.5-20.8L287.9,322.2z"/>
	<path class="st5" d="M208.3,322.2l-17.9,15.5l23.5,20.8c0.2,0.2,34.2-5.8,34.2-5.8L208.3,322.2z"/>
</g>
<path class="st6" d="M248.1,61.6c-21.1,0-40.5,4-55.7,16c-29.5,23.4-31.4,63.2-32.5,97.6c-1.2,35.4-2.7,80,29.5,108.5
	c23.5,20.8,52.7,22.2,58.8,22.3c6.8,0.2,35,0.6,58-17.7c33.8-27,31.9-75.2,30.3-113.1c-1.5-35.8-3.6-74.6-32.5-97.6
	C288.6,65.6,269.2,61.6,248.1,61.6z"/>
<path class="st6" d="M151.3,210.9"/>
<g>
	<path class="st6" d="M158.8,181.5c-8.3,1.4-14.6,5-9.9,32.4s10.5,28.7,18.8,27.2L158.8,181.5z"/>
	<path class="st6" d="M336.4,180.5l-8.9,59.6c8.3,1.4,14.1,0.1,18.8-27.2C351,185.5,344.7,181.9,336.4,180.5z"/>
</g>
<g>
	<path class="st1" d="M349.7,153.1c0,0,8-15.5-12.4-29c0,0,10.2-2,11.7,2.7c0,0-5.1-25-20.4-31.7c0,0,6.6-2,15.3,6.8
		c0,0-3.6-18.9-25.5-25c0,0,4.4-2,11.7,1.4c0,0-5.8-12.2-24-16.2c0,0-1.5-6.1,6.6-5.4c0,0-16-7.4-31.3-8.1c0,0,5.1-10.8,13.8-10.8
		c0,0-21.1-6.1-35.7,2c0,0-8-3.4-2.9-6.1c0,0-39.3-1.4-41.5,19.6c0,0-10.9-0.7-20.4-5.4c0,0-9.5,6.8-0.7,14.9
		c0,0-22.6,0.7-32.8,16.9c0,0,5.1-2,11.7-1.4c0,0-17.5,8.8-19.7,23.6c0,0,5.1-2,10.9-1.4c0,0-10.2,6.1-14.6,18.2c0,0,4.4-1.4,10.9-2
		c0,0-22.6,17.6-22.6,42.6c0,0,8.7-13.5,13.8-13.5c0,0-2.9,21.6,2.9,45.9c0,0,3.6-11.5,7.3-10.8c0,0-0.7,18.9,10.9,31.7
		c0,0,0-43.9,8-44.6c0,0,4.4,6.1,9.5,10.1c0,0-9.5-53.4,13.8-57.4c0,0,7.3,39.9,35.7,45.3c0,0-9.5-28.4-8.7-39.2
		c0,0,30.6,14.2,40.1,42.6c0,0,3.6-15.5-1.5-39.2c0,0,15.3,8.1,13.8,35.1c0,0,11.7-4.7,12.4-20.3c0,0,9.5,14.9,5.1,30.4
		c0,0,2.2,3.4,6.6-4.1c0,0,17.7,8.7,16.7,37.1c0,0,18.5-23.4,12.8-47.3c0,0,5.2,12.8,4.5,21.6c0,0,4.7-19.6-0.4-42.6
		C340.9,140.3,347.5,145.7,349.7,153.1z"/>
</g>
<path class="st7" d="M224.5,208.3c0.1,4.2-3.1,7.7-7.3,7.8s-7.7-3.1-7.8-7.3c0-0.2,0-0.4,0-0.5V205c-0.1-4.2,3.1-7.7,7.3-7.8
	s7.7,3.1,7.8,7.3c0,0.2,0,0.4,0,0.5V208.3z"/>
<path class="st7" d="M291.5,209.3c0.1,4.2-3.1,7.7-7.3,7.8c-4.2,0.1-7.7-3.1-7.8-7.3c0-0.2,0-0.4,0-0.5V206
	c-0.1-4.2,3.1-7.7,7.3-7.8c4.2-0.1,7.7,3.1,7.8,7.3c0,0.2,0,0.4,0,0.5V209.3z"/>
<path class="st8" d="M230.6,280.4c13.2,4.4,27.1,4.4,40.3,0C292.6,273.1,230.6,280.4,230.6,280.4z"/>
<ellipse class="st8" cx="219.7" cy="207.7" rx="2.7" ry="4.3"/>
<ellipse class="st8" cx="280.8" cy="208.7" rx="2.7" ry="4.3"/>
<path class="st9" d="M223.8,190.6c-11.8-2.2-24.2-2.2-35.9,0C187.9,190.6,243.1,194.3,223.8,190.6z"/>
<path class="st9" d="M314.7,190.1c-11.8-2.2-24.2-2.2-35.9,0C259.4,193.8,314.7,190.1,314.7,190.1z"/>
</svg>
